<?xml version="1.0" encoding="UTF-8"?>
<svg version="1.1" viewBox="0 0 2048 1831" width="1280" height="1280" xmlns="http://www.w3.org/2000/svg">
<path transform="translate(0)" d="m0 0h2048v1831h-2048z" fill="#FEFFFE"/>
<path transform="translate(1011,356)" d="m0 0h41l33 3 31 5 28 7 33 11 30 13 16 8 19 10 19 12 16 11 18 14 14 12 8 7 13 12 7 8 10 10 11 14 10 13 10 14 11 17 9 16 10 18 13 28 13 34 7 23 8 41 3 28 1 20v24l-1 22-4 33-6 31-8 29-9 27-11 26-12 24-15 25-8 12-12 16-13 16-9 11-11 12-17 17-11 9-13 11-16 12-10 7-19 12-25 14-27 13-28 11-32 10-29 6-19 3-34 3h-54l-31-3-36-7-37-10-27-10-20-9-25-13-21-13-20-14-11-9-13-11-10-9-12-11-16-16-7-8-13-15-12-15-12-17-14-22-14-26-11-24-9-25-9-30-6-28-4-27-2-22-1-18v-18l2-33 4-31 6-29 9-32 8-22 10-23 13-25 10-17 13-20 13-18 11-13 7-8 9-10 7-8 21-21 11-9 10-9 11-8 24-16 19-11 23-12 30-13 34-11 28-7 30-5 26-3z" fill="#FEFFFE"/>
<path transform="translate(1659,243)" d="m0 0h8l7 2 7 9 15 25 14 24 8 15 8 13 9 16 11 19 10 17 16 28 11 18 10 17 10 19 7 14 5 16-2 4-8 8-16 10-39 23-39 22-28 16-17 10-21 12-21 13-11 9-7 8-2 4-1 17-2 7-7 7-16 8-8 2h-15l-10-4-9-7-7-8-12-19-16-27-8-14-9-15-15-26-11-20-12-21-15-26-9-15-14-25-12-21-8-17-5-17-1-14 3-9 8-9 11-9 7-7 5-3 9 2 10 7 8 5 8-1 11-4 25-13 16-9 14-8 26-15 14-8 17-10 15-9 21-12 17-10 21-10z" fill="#FEFFFE"/>
<path transform="translate(390,244)" d="m0 0h11l15 5 29 16 20 12 48 28 29 17 21 12 28 15 14 5 5 2h5l13-9 6-4 9 1 11 6 13 12 9 12 2 8v14l-5 14-10 20-14 24-14 25-8 14-11 19-13 22-16 27-11 20-10 17-9 16-6 10-10 19-7 11-11 12-9 6-9 3h-13l-13-4-11-6-7-5-3-14-3-12-6-10-4-5-14-9-14-8-24-14-21-12-22-13-26-15-24-14-22-13-14-10-11-9-6-9v-8l5-12 13-24 9-15 13-22 11-19 8-14 10-17 6-11 22-38 8-14 13-23 12-19 9-11z" fill="#FEFFFE"/>
<path transform="translate(930,1271)" d="m0 0h185l55 1 15 2 10 4 7 6 6 12 3 15 2 22-4 4-15 9-7 6-2 6-1 11-1 33-2 172-1 18-3 6-3 3-11 3-13 1h-256l-9-5-3-6-2-9-2-22-1-30v-165l-2-11-5-8-8-7-11-7-3-5-1-8 2-19 4-11 6-8 7-6 10-4 11-2z" fill="#FEFFFE"/>
<path transform="translate(836,1350)" d="m0 0h11l10 4 6 7 2 10v199l3 24 4 10 4 6 10 5 8 2 11 1 160 1h81l20-2 11-4 8-6 4-5 3-7 2-13 1-28 1-185 2-9 4-5 9-4 4-1h11l8 4 5 7 2 10 1 25v88l-1 69-2 34-3 17-4 12-7 13-8 10-8 8-14 8-12 5-18 4-10 1-24 1h-206l-21-1-20-3-15-5-11-6-12-11-9-10-8-13-6-15-3-15-2-24v-179l1-19 3-9 10-5z" fill="#FEFFFE"/>
<path transform="translate(1653,184)" d="m0 0h20l15 4 16 8 11 8 12 12 12 17 14 23 14 25 14 24 12 21 9 16 16 28 10 17 15 25 14 26 8 17 5 15 1 5v25l-4 16-8 16-6 9-9 10-12 9-31 19-16 9-17 10-20 11-15 9-23 13-10 6-26 15-16 8-21 10-6-1-12-11-4-7-1-9 3-6 9-9 10-7 28-16 19-11 22-13 21-12 25-14 18-10 19-11 18-11 10-8 6-7 5-10v-9l-6-19-8-16-11-20-17-28-9-16-10-17-14-24-14-25-10-17-11-20-13-22-13-20-6-7-8-5-5-1h-13l-14 4-25 12-23 13-16 9-17 10-10 6-13 8-20 11-17 10-22 12-16 9-18 10-4-2-14-14-5-8v-7l4-8 10-8 13-8 24-14 16-9 15-9 24-14 25-15 48-27 17-9 22-7z" fill="#FEFFFE"/>
<path transform="translate(399,183)" d="m0 0 16 2 18 6 16 8 17 9 15 9 32 19 26 15 19 11 24 14 26 15 12 8 10 9 5 6 1 12-6 3-7 8-10 7-9-3-11-6-18-10-16-9-24-14-14-8-17-10-20-12-24-14-21-12-21-11-9-3-5-1h-15l-11 4-11 11-24 40-9 17-6 10-13 23-8 13-15 26-6 10-9 16-15 25-8 14-10 16-8 20-3 13 1 8 7 12 7 8 13 9 14 9 21 12 18 10 10 6 22 13 14 8 19 11 18 10 24 14 11 8 9 8 5 8 1 6-2 5-7 9-11 6-5-1-9-1-46-25-13-8-18-10-10-6-26-15-25-14-15-9-21-13-12-9-10-8-7-7-9-12-7-14-5-17v-22l4-17 6-16 13-23 6-11 12-20 10-17 9-15 17-29 10-18 15-26 16-28 9-16 16-24 9-10 11-10 19-9 14-4z" fill="#FEFFFE"/>
<path transform="translate(1009,342)" d="m0 0h42l25 2 35 5 27 6 28 8 34 13 28 13 24 13 19 12 18 13 12 9 14 11 10 9 8 7 13 12 7 8 9 10 11 14 14 20 10 15 9 15 12 22 8 16 11 23 13 36 6 24 5 23 4 29 2 25v46l-3 32-6 36-7 28-7 23-10 27-9 21-8 16-11 20-12 18-10 14-18 22-9 10-12 13-15 15-8 7-10 9-8 7-21 16-22 14-20 12-27 14-28 12-27 9-30 8-20 4-29 4-27 2h-48l-32-2-30-5-30-7-26-8-25-9-21-9-16-8-16-9-16-10-20-14-18-14-10-9-8-7-10-9-20-20-7-8-12-14-10-13-14-20-13-21-12-23-12-25-10-25-9-28-6-24-7-40-2-17-1-18v-25l2-36 5-33 8-38 6-20 9-25 9-21 10-21 9-16 13-22 13-19 9-12 11-14 16-17 13-14 8-7 11-10 11-9 13-10 14-10 13-9 24-14 23-12 25-11 28-10 31-9 34-7 33-4zm2 14-34 3-26 4-28 6-27 8-23 8-27 12-27 14-21 13-16 11-13 10-15 13-12 11-19 19-7 8-9 10-11 14-12 16-10 15-9 15-10 18-12 23-10 25-9 27-8 32-5 30-3 29-1 21v18l2 31 4 30 6 30 9 31 8 23 12 27 13 25 16 25 10 14 11 14 12 14 18 20 17 17 8 7 10 9 11 9 13 10 24 16 17 10 29 15 33 13 27 8 26 6 26 5 31 3h54l34-3 30-5 25-6 36-12 23-10 25-12 23-13 17-11 11-8 12-9 16-13 14-12 22-22 9-11 13-16 10-13 12-17 15-26 10-19 10-22 10-27 10-35 5-24 4-26 2-18 1-22v-26l-2-30-4-27-7-34-10-30-10-25-14-30-10-18-10-17-8-12-11-15-9-12-9-11-9-10-9-9-7-8-12-11-13-11-14-11-15-11-15-10-19-11-24-13-30-13-25-9-24-7-28-6-29-4-24-2z" fill="#1A151B"/>
<path transform="translate(393,170)" d="m0 0h14l18 3 17 6 20 10 21 12 32 19 17 10 59 35 18 10 19 12 10 9 7 8 2 7 1 16 10 9 12 9 14 14 6 11 3 16v8l-4 17-8 17-11 20-29 49-14 24-9 15-6 11-16 28-17 28-13 24-6 10-11 18-9 13-11 11-18 8-16 3-9-2-8-2-20-12-5-2-15 5-9 5-7 2-10-2-19-9-24-14-23-13-21-12-16-9-22-13-28-16-27-16-14-9-13-11-7-7-11-15-9-19-4-13-1-7v-15l3-16 7-21 9-19 9-16 8-14 10-17 11-19 9-15 9-16 13-22 17-29 20-36 8-14 14-21 9-10 7-7 13-8 16-8 15-4zm6 13-18 3-15 5-15 8-12 11-8 9-11 17-8 13-15 27-14 24-10 18-15 26-16 27-12 20-13 22-13 23-8 16-6 20-1 6v22l5 17 7 14 7 9 9 10 12 10 13 9 15 9 13 8 25 14 26 15 14 8 17 10 14 8 23 13 23 12 4 1 6 1 5 1 11-6 8-10 1-6-3-8-9-10-14-10-77-44-15-9-14-8-17-10-20-11-16-10-12-9-7-6-8-13-2-5 1-9 4-15 8-18 11-17 12-21 12-20 10-18 9-15 14-24 10-17 27-48 12-19 6-9 9-9 11-4h15l11 3 16 8 21 11 25 15 19 11 15 9 45 26 14 8 23 13 16 8 4 1 11-8 6-7 6-3-1-12-7-8-9-8-25-15-52-30-24-14-29-17-25-15-20-11-19-8-15-4zm-9 61-6 4-11 15-13 22-9 16-8 14-11 19-14 24-13 23-12 21-10 17-17 29-8 14-9 17-2 6v8l8 11 14 11 19 12 26 15 24 14 26 15 17 10 28 16 15 9 14 8 9 7 7 11 3 8 3 17 3 5 16 9 13 4h13l10-4 8-5 8-8 7-10 7-12 7-14 9-15 14-25 10-17 10-18 9-15 13-22 12-21 11-19 26-46 10-21 2-7v-14l-3-9-6-8-9-10-9-7-11-5h-6l-12 8-7 5-7-1-15-5-25-13-24-14-23-13-25-15-28-16-25-15-20-11-12-6-10-3z" fill="#1A151B"/>
<path transform="translate(947,1256)" d="m0 0h27l150 1 52 1 13 2 13 5 8 6 9 14 4 11 4 27 1 10 10 7 8 6 5 6 3 9 1 9 1 39v130l-1 41-2 21-4 15-8 16-8 11-13 13-14 9-14 7-16 5-14 2-41 2h-183l-34-1-16-2-15-4-13-5-12-7-13-10-9-10-7-10-8-16-4-12-3-21-1-16v-113l1-73 2-23 3-7 7-6 11-7h2l5-28 5-19 6-11 7-9 8-6 12-5 9-2 10-1zm-17 15-43 1-14 3-10 5-7 7-6 12-2 11-1 17 3 7 10 7 6 4 7 8 3 7 1 8v165l1 30 2 22 3 12 5 5 6 3h256l13-1 11-3 5-6 1-3 1-18 2-172 1-33 1-11 3-7 9-7 15-9 1-3-2-21-3-15-6-12-7-6-10-4-15-2-55-1zm-94 79-11 4-4 4-2 7-1 19v179l2 24 4 18 6 14 7 11 12 13 9 8 16 8 15 4 15 2 21 1h206l24-1 16-2 15-4 17-8 9-7 8-8 9-14 5-11 4-16 2-21 1-21 1-69v-88l-1-25-2-10-5-7-8-4h-11l-11 4-5 4-2 5-1 6-1 185-1 28-3 16-5 8-7 6-9 4-10 2-14 1h-81l-160-1-16-2-10-4-5-5-4-7-3-12-2-18v-199l-2-10-6-7-10-4z" fill="#1A151B"/>
<path transform="translate(1657,170)" d="m0 0h10l16 2 16 5 16 8 11 9 9 9 12 16 11 18 12 21 13 23 14 24 14 25 14 24 13 22 13 21 17 29 14 30 3 13 2 15v11l-3 18-6 16-8 15-9 10-4 5-17 13-16 10-15 9-22 12-39 22-26 15-18 11-20 11-16 9-21 9-10 2h-7l-7-4-1-1-9-2-4-3-4 1-17 9-14 5-12 2-7-1-8-1-16-8-6-5v-2h-2l-11-15-16-28-15-26-13-23-12-21-14-24-9-16-18-30-10-17-11-19-10-18-11-21-5-14-1-6v-11l3-12 7-12 11-12 15-11 7-5 4-6v-19l3-6 10-9 16-11 22-13 24-14 22-13 24-14 52-30 23-12 13-6 20-6zm-4 14-17 4-17 6-23 12-14 8-24 14-16 9-13 8-22 13-17 10-23 13-17 10-12 8-9 7-4 8v7l6 9 15 15 6-2 29-16 32-18 15-9 22-12 10-7 20-11 15-9 22-12 21-11 16-6 5-1h13l9 3 8 7 10 15 12 20 15 26 10 18 13 23 15 26 14 24 10 17 12 20 12 21 8 16 4 11 3 10v9l-5 10-9 10-10 7-15 9-46 26-27 15-22 13-19 11-17 10-23 13-11 9-7 7-2 5 1 9 6 9 10 9 6 1 34-16 24-14 14-8 13-8 18-10 19-11 25-14 10-6 17-10 21-13 12-9 7-7 7-10 8-16 4-12 1-6v-25l-4-15-9-20-11-21-11-19-9-15-14-24-13-23-8-14-14-24-13-23-9-16-13-22-13-19-11-12-10-9-14-8-13-5-9-2zm6 59-13 5-19 9-24 14-21 12-17 10-15 9-28 16-39 22-23 12-12 4-7-1-6-4-10-7-9-2-8 6-13 12-7 6-4 5-2 8 1 14 5 17 11 23 10 17 15 27 15 25 14 25 11 19 10 18 14 24 9 15 12 21 14 23 10 14 9 8 10 5 3 1h15l13-4 11-6 8-8 1-6 1-17 5-8 7-7 8-6 18-11 24-14 45-26 23-13 18-10 34-20 16-10 10-9 3-3-3-11-5-14-10-19-8-14-10-17-8-13-9-16-6-10-11-19-14-24-10-18-7-11-9-17-15-25-13-21-5-4-5-1z" fill="#1A151B"/>
</svg>
