<?xml version="1.0" encoding="UTF-8"?>
<svg version="1.1" viewBox="0 0 800 1332" width="1280" height="1280" xmlns="http://www.w3.org/2000/svg">
<path transform="translate(313,62)" d="m0 0h164l21 2 11 4 9 6 9 8 10 13 5 10 1 4 1 17v138l-2 11-6 7-8 5-1 17-4 10-8 10-9 8-11 7-11 5-4 1 2 4 2 10 7 11 9 6 16 8 21 11 21 13 14 11 12 11 10 9 14 14 7 8 11 13 13 19 12 21 10 21 10 28 6 25 5 31 1 12v25l-3 26-6 30-11 33-9 22-10 19-14 21-9 12-12 14-23 23-11 9-10 8-18 12-21 12-23 12-16 7-14 4-18 3 10 5 16 4-9 7-4 4 29 9 12 6 8 8 6 10 3 11 1 15 5 2 8 7 3 5 1 35v119l-2 11-4 9-7 11-8 9-13 9-12 5-5 1-16 1h-152l-22-1-12-3-9-5-9-7-8-8-7-11-5-13-2-12-1-21v-97l1-26 6-10 8-10h2l3-19 4-10 8-11 10-7 12-5 16-3 23-3h4v-2l-10-3-10-5v-2l12-4 5-3-9-3-22-6-17-6-25-12-16-9-24-16-14-11-13-11-14-14-18-22-13-19-12-21-11-23-10-28-6-25-4-29-1-11v-33l3-29 5-23 7-24 8-20 8-17 10-18 11-17 11-14 12-14 16-16 11-9 12-10 15-10 18-11 23-12 30-12 17-5-7-5-1-5 3-9 7-6-26-2-13-4-11-7-8-8-6-10-2-6-1-15-8-9-7-12-1-6-1-97v-35l2-16 7-17 7-10 9-10 8-6 10-5 7-2zm49 12v1l38 2 52 2h36l1-2-9-1-26-1-53-1zm79 17m7 0-2 4 4-1-1-3zm7 0-1 3 3 1v-4zm-32 1m4 0m8 0 2 2v-2zm5 0-1 2 3-1zm-7 1m28 0m2 0-1 2h4l-1-2zm8 0m-147 17-10 1-10 6-2 9-1 111-1 27-3 8-12 15-2 10 1 11 6 9 9 6 4 1h156l24-1 8-2 10-6 6-9 3-12-1-6-8-14-5-7-2-11-1-133-2-7-4-4-2-1-54-1zm-48 30-2 1-3 16-2 28-1 32 1 26 2 6 2 4 2 1h6l2-14 1-16v-27l-3-46-1-9zm114 233-27 2-27 4-22 6-25 10-25 12-15 9-16 11-13 11-11 9-7 7-9 11-11 13-13 19-12 21-10 21-9 24-8 36-4 27v31l3 26 7 34 9 27 11 24 11 20 12 17 8 10 11 13 13 14 8 7 13 11 17 12 15 9 23 11 26 10 25 7 21 3 23 2h34l42-4 36-13 25-10 22-12 16-11 10-8 14-12 22-22 9-11 10-13 13-21 13-27 7-18 6-23 4-20 2-16 1-14v-31l-2-26-6-28-6-20-9-22-13-27-12-18-8-10-9-10-14-15-8-8-8-7-13-11-18-12-21-12-15-7-21-8-24-7-26-4-28-3zm-85 591-11 3-5 5-5 8-1 3v14l6 8 7 7 4 7 1 5 1 140 2 8 10 4h169l6-3 3-5 1-8v-125l1-11 7-12 7-7 5-3 1-2v-11l-4-13-6-8-5-3-6-1zm-32 71-2 79-2 27v42l2 5 4-2 3-5 3-9 5 5 12 9 10 6 7 3 5 1 20 1 10-1-4-2-26-2-11-3-11-8-9-11-4-10-2-15-6-89h-1l-2-21zm245 95-4 8-2 9-1 12 1 12 6 4 8 1 3-2 2-11v-18l-1-11-3-3-3 3v2h-2l-1-4z" fill="#666565"/>
<path transform="translate(313,62)" d="m0 0h164l21 2 11 4 9 6 9 8 10 13 5 10 1 4 1 17v138l-2 11-6 7-8 5-1 17-4 10-8 10-9 8-11 7-11 5-4 1 2 4 2 10 7 11 9 6 16 8 21 11 21 13 14 11 12 11 10 9 14 14 7 8 11 13 13 19 12 21 10 21 10 28 6 25 5 31 1 12v25l-3 26-1 6-2-2-2-16-2-6-2-10-2 1-1-6-2-39-3-19-7-28-10-27-15-31-12-18-8-10-9-10-14-15-7-7-8-7-13-11-18-12-21-12-15-7-21-8-24-7-26-4-28-3h-17l-27 2-27 4-19 5h-2v-5l-18-2 3-2 15-6 17-5-7-5-1-5 3-9 7-6-26-2-13-4-11-7-8-8-6-10-2-6-1-15-8-9-7-12-1-6-1-97v-35l2-16 7-17 7-10 9-10 8-6 10-5 7-2zm49 12v1l38 2 52 2h36l1-2-9-1-26-1-53-1zm79 17m7 0-2 4 4-1-1-3zm7 0-1 3 3 1v-4zm-32 1m4 0m8 0 2 2v-2zm5 0-1 2 3-1zm-7 1m28 0m2 0-1 2h4l-1-2zm8 0m-147 17-10 1-10 6-2 9-1 111-1 27-3 8-12 15-2 10 1 11 6 9 9 6 4 1h156l24-1 8-2 10-6 6-9 3-12-1-6-8-14-5-7-2-11-1-133-2-7-4-4-2-1-54-1zm-48 30-2 1-3 16-2 28-1 32 1 26 2 6 2 4 2 1h6l2-14 1-16v-27l-3-46-1-9z" fill="#9D9E9E"/>
<path transform="translate(286 1e3)" d="m0 0 7 6 6 7 3 9 1 140 1 8 10 3h169l6-3 2-4 1-8v-125l1-11 4-7 2 3 2 12v48l-1 32v45l-2 12-6 2-2 8h-111l-61 1-9 2 3 3 5 1 20 1h131l15-1 7-6 5-2 3-4 4-9 2-4 1-14v-117l2-10 4-6 4-2h8l5 3 9 9v127l-1 22-2 5h-2l-3 10-5 8-9 10-5 4-9 5-5 3h-191l-13-5-6-3v-2l-5-1-7-8-5-7-4-9-2-10h-4l-3 11-2-3-2-7-1-8-1-21v-97l1-26 5-9 1 4 2 4 5-1 5-8h13l5 4 2 5 8 2-3-8-1-4h-2l-5-7zm-13 33-2 79-2 27v42l2 5 4-2 3-5 3-9 5 5 12 9 10 6 7 3 5 1 20 1 10-1-4-2-26-2-11-3-11-8-9-11-4-10-2-15-6-89h-1l-2-21zm245 95-4 8-2 9-1 12 1 12 6 4 8 1 3-2 2-11v-18l-1-11-3-3-3 3v2h-2l-1-4z" fill="#9D9E9E"/>
<path transform="translate(320,947)" d="m0 0h161l18 6 10 5 8 8 6 10 3 11 1 15 5 2 8 7 3 5 1 35v119l-2 11-4 9-7 11-8 9-13 9-12 5-5 1-16 1h-152l-22-1-12-3-9-5-9-7-8-8-7-11-2-5 1-9 2-4h4l5 15 7 11 6 6v2l5 1v2l6 2 13 5h191l11-7 5-3 8-7 6-8 6-14h2l1-5 1-22v-127l-10-10-3-1h-8l-5 3-3 7-1 11v113l-1 16-4 5-4 9-3 3-6 2-5 5-15 1h-131l-22-1-6-3v-3l11-2 76-1h93l2-7 6-2 2-16v-44l1-36v-41l-2-12v-5l9-10 4-3h2v-13l-4-13-6-8-4-2-6-1h-188l-11 3-4 2-2 4-4 9v14l7 14h2l3 5 1 7h-5l-10-10h-13l-5 8-5 1-3-3 1-7 8-10h2l3-19 4-10 8-11 10-7 12-5z" fill="#646363"/>
<path transform="translate(308,337)" d="m0 0h151l33 1-1 3-11 4 2 4 2 10 7 11 9 6 16 8 21 11 21 13 14 11 12 11 10 9 14 14 7 8 11 13 13 19 12 21 10 21 10 28 6 25 5 31 1 12v25l-3 26-1 6-2-2-2-16-2-6-2-10-2 1-1-6-2-39-3-19-7-28-10-27-15-31-12-18-8-10-9-10-14-15-7-7-8-7-13-11-18-12-21-12-15-7-21-8-24-7-26-4-28-3h-17l-27 2-27 4-19 5h-2v-5l-18-2 3-2 15-6 17-5-7-5-1-5 3-9 7-6-26-2z" fill="#656464"/>
<path transform="translate(327,73)" d="m0 0h37v1l11 1 77 3h36l-8-1-26-1-53-1v-1h79l10 2 12 5 10 6 8 8 5 9 4 11 1 12 1 27v68l-1 19-1 21-4 5-4 2-7-2-4-5-1-139-2-7-8-10-2-4-9-3-12-1h-159l-11 1-9 6-5 8-5 11-1 16-1 48-1 9h-1l-3-46-1-9-5-1-2 16-2 28-1 32 1 26 2 6 1 4 8 1 1-14 1-16 2 1v38l-4 5-6 1-5-2-3-4v-146l3-14 1-3 14-14 10-6 13-5zm114 18m7 0-2 4 4-1-1-3zm7 0-1 3 3 1v-4zm-32 1m4 0m8 0 2 2v-2zm5 0-1 2 3-1zm-7 1m28 0m2 0-1 2h4l-1-2z" fill="#FEFEFE"/>
<path transform="translate(313,62)" d="m0 0h164l21 2 11 4 9 6 9 8 10 13 5 10 1 4 1 17v138l-2 11-6 7-8 5-1 17-4 10-8 10-9 8-11 7-49-1h-84l-59-1-12-5-10-8-7-8-5-10-1-3-1-15-8-9-2-3-1-9 6-1 3 3 3 6 2 1h7l9-2 2-5 2-3h6l-1 8-3 6-6 7-2 10 1 11 6 9 8 5 4 1h156l24-1 8-2 10-6 5-8 3-12-1-6-8-14-3-4 2-15 1-76v-56l2-2 2 3 2 19v120l5 9 2 2 8 1 5-1 5-6h3l2-5 1-65-1-83-4-8-4-5-3-7-7-8-2-5-6-2-7-5-9-3h-194l-7 2v2l-14 10-7 7-4 5-5 16h-4l-3-6 1-8 8-13 11-12 10-7 10-4 4-1z" fill="#636262"/>
<path transform="translate(295,378)" d="m0 0h12l8 2v5l-12 5-25 11-23 12-12 8-11 8-11 9-14 12-9 10-9 11-11 14-10 15-12 22-8 17-9 24-8 36-4 27v31l3 26 7 34 9 27 11 24 11 20 12 17 8 10 11 13 12 13 8 7 13 11 17 12 15 9 23 11 26 10 25 7 17 3v4l-8 4-20 1-20-6-16-6-26-13-21-13-17-12-16-13-10-9-11-11-18-22-13-19-12-21-11-23-10-28-6-25-4-29-1-11v-33l3-29 5-23 7-24 8-20 8-17 10-18 11-17 11-14 12-14 16-16 11-9 12-10 15-10 18-11 23-12z" fill="#666565"/>
<path transform="translate(517,1018)" d="m0 0h6l5 6 2 9v63l1 9v40h-1l-1-13-4 2-1 2h-2l-3-5-3 4-3 12-1 12 1 12 8 4h7l-2 6-6 12-8 8-10 6-10 4-6 4h-69l-104-1-7-2-10-4-8-4-12-11-3-4 2-5 4-9 2-4 5 5 12 9 10 6 7 3 5 1 20 1 6-1-26-2-5-1v-1l169-1 10-3 4-2 2-4 2-3h2l2-5 2-3 1-6 1-139 3-5z" fill="#FEFEFE"/>
<path transform="translate(308,337)" d="m0 0h151l33 1-1 3-11 4 2 4 2 10 7 11 6 4-3 1-13-5-23-5-16-4-20-2h-47l-19 2-10 2-10 3-4-1-7-5-1-5 3-9 7-6-26-2z" fill="#FEFEFE"/>
<path transform="translate(295,378)" d="m0 0h12l8 2v5l-12 5-25 11-23 12-12 8-11 8-11 9-14 12-9 10-9 11-11 14-10 15-12 22-8 17-9 24-8 36-1 6-2-1-2-13-1-7-4 1 2-11 7-24 8-20 8-17 10-18 11-17 11-14 12-14 16-16 11-9 12-10 15-10 18-11 23-12z" fill="#686767"/>
<path transform="translate(389,99)" d="m0 0h53l39 1 7 2 1 3h2v2l5 2 3 5v4l-7 1-3-4v-2l-4-1-54-1h-107l-10 1-8 5h-2l-1 9-1 111-1 11-2-4 1-16h-2v-19l-1-4 2-13-1-9v-3-11l-1-11 1-5-2-13v-26l3-5 7-1 1-5 2-2 5-1z" fill="#656464"/>
<path transform="translate(345,924)" d="m0 0 6 3 14 2h58l15-1 18-4 12 5 9 2 4 1-9 7-4 4 9 3v1l-22 1h-85l-41-1v-1l18-2v-2l-10-3-10-5v-2l12-4z" fill="#FEFEFE"/>
<path transform="translate(478,910)" d="m0 0h11l7 1-4 3-14 5-23 4-1 2-16 4-15 1h-58l-14-2-8-4-12-3 3-2 13-1 6-3h2l-1-3 5-1 23 2h34l25-2-1 2 1 3 8 2h14l10-2 3-3v-2z" fill="#9E9F9F"/>
<path transform="translate(375,358)" d="m0 0h47l25 3 14 4 12 2 11 3 10 4 13 5 16 9 4 2-4 1-6-3-12-2 2-3-22-6-3-2-15-3-19-2-13-4-15-3h-45l-7 1-10 4 18 2 38 1 22 1 9 1 3 3-1 2-12-1-28-3h-17l-27 2-27 4-19 5h-2v-5l-18-2 3-2 15-6 13-4 12-2 9-3 13-2z" fill="#9FA0A0"/>
<path transform="translate(320,947)" d="m0 0h161l18 6v2l-3 1-15 1h-168l-17-1-2-2 10-4z" fill="#9D9E9E"/>
<path transform="translate(270,1017)" d="m0 0h8l5 3 3 7v31l-1 102h-1l-2-15-5-74-1-9h-1l-1-17-2 69-2 27-1 37h-1l-1-12-1-129 1-14z" fill="#FEFEFE"/>
<path transform="translate(497,1017)" d="m0 0 2 3 2 12v48l-1 32v45l-2 12-6 2-2 8h-111l-61 1-10 2-1-4h-2l-1-3 4-2 6 2h169l6-3 2-4 1-8v-125l1-11z" fill="#9FA0A0"/>
<path transform="translate(343,330)" d="m0 0 143 1 15 1 2 2-8 5-49-1h-84l-59-1-8-3v-1l24-2z" fill="#9D9E9E"/>
<path transform="translate(678,599)" d="m0 0h1l3 20 1 12v25l-3 26-1 6-2-2-2-16-2-6-2-10-2 1-1-6v-19l2-1 2 1v-6l2-6v-2h2l1-13z" fill="#9C9D9D"/>
<path transform="translate(667,573)" d="m0 0h2l1 5h3l1-2 3 12 1 5v10l-2 13h-2l1 3-2 5-1 6h-4l-1-2-2-26v-22z" fill="#646363"/>
<path transform="translate(490,1171)" d="m0 0 1 2-1 6h-111l-61 1-10 2-1-4h-2l-1-3 4-2 6 2h169l6-3z" fill="#9D9E9E"/>
<path transform="translate(272 1e3)" d="m0 0h12l7 9v2h2l3 5 1 7h-5l-10-10h-13l-5 8-5 1-3-3 1-7 8-10z" fill="#646363"/>
<path transform="translate(258,266)" d="m0 0 5 1 5 8 2 1h7l9-2 2-5 2-3h6l-1 8-3 6-6 7-4 5-5-2-7-1-4-4-4-7-5-2-1-9z" fill="#636262"/>
<path transform="translate(503,277)" d="m0 0h2v3l5 2v2l5 2 3 3 1 7v11l-1 3-4 1-5 9h-2v2l-7 1-11-1 4-3 8-5 5-8 3-12-1-6-5-9z" fill="#A5A5A5"/>
<path transform="translate(371,919)" d="m0 0h50l3 2-1 3-2 1-10 1h-27l-10-1v-2l-4-1z" fill="#626161"/>
<path transform="translate(324,370)" d="m0 0h11l15 1 2 4-4 3-12 2h-19l-3-4 3-1 1-4z" fill="#636262"/>
<path transform="translate(258,276)" d="m0 0 5 2 6 9 1 1 10 2h3 1v8l-2 3h-2v2h-4l-1 10h-3l-4-10-1-15-8-9z" fill="#9C9D9D"/>
<path transform="translate(273,975)" d="m0 0 2 3 2 7 3 2v2h2l1-2 1 10 2 5-2-1h-17l3-18z" fill="#9D9E9E"/>
<path transform="translate(300,1056)" d="m0 0h2v79h-1l-1-10-1-5v-6l-1-4v-17l1-4v-3-16l-1-10z" fill="#626161"/>
<path transform="translate(300,1145)" d="m0 0 2 4 2 23h2l1 3-2 1v2h2l1 4h-2v-2l-8-1-3-3 1-18z" fill="#636262"/>
<path transform="translate(124,570)" d="m0 0 2 4 1 6 2-1v3h5l-2 12-2 11-2-1-2-13-1-7-4 1 2-11z" fill="#9C9D9D"/>
<path transform="translate(668,557)" d="m0 0 2 3 4 16-1 2h-3l-1-5h-2v6l-1 4-1 13h-1l-4-18 1-5 2 1v2h2l1-6h2l-1-2v-9z" fill="#9E9F9F"/>
<path transform="translate(300,192)" d="m0 0h1v56l-2-4 1-16h-2v-19l-1-4 2-12z" fill="#646363"/>
<path transform="translate(512,977)" d="m0 0 4 2 3 13-1 7-5 3v-13l-2-11z" fill="#9D9E9E"/>
<path transform="translate(528,391)" d="m0 0 5 2 14 8 12 8v3l-2 1v-3l-5-2-10-6-6-3-1-2-8-2v-3z" fill="#999A9A"/>
<path transform="translate(300,1056)" d="m0 0h2v35l-4-4 1-2v-15l-1-10z" fill="#636262"/>
<path transform="translate(129,683)" d="m0 0h1l4 19-1 3-3-1-1 3-1-2v-18z" fill="#9E9F9F"/>
<path transform="translate(582,445)" d="m0 0 6 1v3l3 1v3l4 2 5 4v2h2l1 6-5-4-7-8-9-9z" fill="#9C9D9D"/>
<path transform="translate(301,911)" d="m0 0h16l3 1 2 6-9-2-12-4z" fill="#9D9E9E"/>
<path transform="translate(666,705)" d="m0 0 2 1 2 7 2 1 1-2-2 10-2 5h-1l-2-12z" fill="#A1A2A2"/>
<path transform="translate(661,573)" d="m0 0 2 1v2l3-1 1 4-1 4-1 13h-1l-4-18z" fill="#9FA0A0"/>
<path transform="translate(659,533)" d="m0 0 2 2 3 10-5 1-1-1v-9z" fill="#9D9E9E"/>
<path transform="translate(663,696)" d="m0 0 2 1-1 15-4 1 1-8z" fill="#A1A2A2"/>
<path transform="translate(528,391)" d="m0 0 5 2 7 4 1 3-6-1v-2l-8-2v-3z" fill="#9FA0A0"/>
<path transform="translate(290,380)" d="m0 0 2 1v2l-4 3 1 2-10-1v-2z" fill="#9D9E9E"/>
<path transform="translate(320,904)" d="m0 0 10 2 4 2-4 1h-9l-2-4z" fill="#9D9E9E"/>
<path transform="translate(508,902)" d="m0 0h7l-4 3-8 4-2-1 2-5z" fill="#9D9E9E"/>
<path transform="translate(465,381)" d="m0 0 13 1 2 2 6 2 1 2-22-6z" fill="#9D9E9E"/>
<path transform="translate(499,894)" d="m0 0h3l-1 4-2 1h-10l3-2z" fill="#9FA0A0"/>
<path transform="translate(292,389)" d="m0 0h7l2 2-13 5 1-4h3z" fill="#9D9E9E"/>
<path transform="translate(475,903)" d="m0 0 3 1-1 3-3 1h-10l3-2z" fill="#9D9E9E"/>
<path transform="translate(524,305)" d="m0 0h2l-3 9-4 4 1-7z" fill="#9D9E9E"/>
<path transform="translate(653,546)" d="m0 0 1 3h2v6l-2 2-3-10z" fill="#9D9E9E"/>
<path transform="translate(572,436)" d="m0 0 4 1 3 1 3 5-1 2-8-7z" fill="#9D9E9E"/>
<path transform="translate(532,408)" d="m0 0 10 2 1 5-11-6z" fill="#9A9B9B"/>
<path transform="translate(140,549)" d="m0 0 2 3-1 5-2 3-1-8z" fill="#9D9E9E"/>
<path transform="translate(513,374)" d="m0 0 2 1z" fill="#FEFEFE"/>
<path transform="translate(275,1063)" d="m0 0" fill="#FEFEFE"/>
<path transform="translate(481,930)" d="m0 0" fill="#FEFEFE"/>
</svg>
