<?xml version="1.0" encoding="UTF-8"?>
<svg version="1.1" xmlns="http://www.w3.org/2000/svg" width="500" height="500">
<path d="M0 0 C0.68097748 0.00215515 1.36195496 0.0043103 2.06356812 0.00653076 C12.90670423 0.06147935 23.35755646 0.55072526 33.875 3.3125 C34.59333008 3.50054199 35.31166016 3.68858398 36.05175781 3.88232422 C59.16595409 10.22334227 77.71305471 22.96210706 94.875 39.3125 C95.66777344 40.04082031 96.46054687 40.76914063 97.27734375 41.51953125 C117.08018922 60.27828997 127.81823701 86.73258889 131.875 113.3125 C132.07029297 114.57126953 132.07029297 114.57126953 132.26953125 115.85546875 C136.53980059 149.8468127 126.72109669 183.7372262 106.875 211.3125 C104.63574045 214.01518247 102.32994659 216.59946264 99.91796875 219.1484375 C98.17098669 220.99896916 96.58397158 222.88709297 95 224.875 C90.8847915 229.68923021 85.88292079 233.47417104 80.875 237.3125 C79.90691406 238.05757812 78.93882812 238.80265625 77.94140625 239.5703125 C60.42006599 252.38209506 38.53549041 261.14370565 16.875 263.3125 C16.24513184 263.37808105 15.61526367 263.44366211 14.96630859 263.51123047 C-18.91252234 266.82831723 -54.45661445 257.51830497 -81.0625 235.87890625 C-89.70495864 228.63643773 -97.26247942 221.28071081 -104.125 212.3125 C-104.79144531 211.47332031 -105.45789063 210.63414062 -106.14453125 209.76953125 C-126.44627206 183.30118672 -134.24305359 148.5141527 -130.35571289 115.64257812 C-126.64343999 88.06423775 -115.69883752 62.37083845 -96.125 42.3125 C-95.28195313 41.41917969 -94.43890625 40.52585938 -93.5703125 39.60546875 C-68.76469639 13.90109843 -35.76088866 -0.15426525 0 0 Z M-89.77734375 52.1484375 C-96.27275471 59.61465718 -101.42330877 67.62783324 -106.125 76.3125 C-106.45129395 76.91433105 -106.77758789 77.51616211 -107.11376953 78.13623047 C-121.20384158 104.72031822 -123.73097225 136.57921627 -115.44140625 165.36328125 C-105.5128196 196.15526377 -85.01821061 223.48630452 -56.03393555 238.66821289 C-52.7689828 240.30441235 -49.46412935 241.8343255 -46.125 243.3125 C-45.01253906 243.80621094 -43.90007812 244.29992187 -42.75390625 244.80859375 C-15.37755847 256.10091835 19.26833821 255.35048128 46.65576172 244.27832031 C78.53793048 230.40308823 101.4971259 205.20315433 114.40820312 173.25830078 C118.8956577 161.69382669 121.25328684 149.70908365 121.875 137.3125 C121.92785156 136.52617187 121.98070312 135.73984375 122.03515625 134.9296875 C123.07075682 106.20302829 112.43764459 77.06905789 93.875 55.3125 C93.04613281 54.3225 92.21726562 53.3325 91.36328125 52.3125 C70.90368897 28.55907994 41.06067778 13.79875974 9.875 11.3125 C-28.52379416 9.02812729 -63.67714936 24.24160226 -89.77734375 52.1484375 Z " fill="#222222" transform="translate(249.125,123.6875)"/>
<path d="M0 0 C1.2649102 -0.01270432 1.2649102 -0.01270432 2.55537415 -0.02566528 C5.32637876 -0.04894812 8.09682513 -0.0500594 10.86791992 -0.04882812 C12.80694294 -0.05593583 14.74596387 -0.06363572 16.6849823 -0.07189941 C20.74414925 -0.08532488 24.80312179 -0.08692207 28.86230469 -0.08105469 C34.04388815 -0.07516572 39.22453234 -0.10572614 44.40593433 -0.14617157 C48.40989641 -0.17212368 52.41363472 -0.17491908 56.4176693 -0.17127991 C58.32690475 -0.17296466 60.23615125 -0.18254461 62.14530373 -0.20042419 C83.18244285 -0.37574684 83.18244285 -0.37574684 91.40071106 7.42810059 C97.71848593 14.11552434 100.71022273 21.0088153 100.48510742 30.25585938 C99.75173461 38.22230131 96.23417023 43.23698626 91.02807617 49.15820312 C84.78332405 54.30878927 78.30832185 56.02044407 70.34472656 55.95336914 C69.50116104 55.96198471 68.65759552 55.97060028 67.78846741 55.97947693 C65.02817194 56.0019906 62.26890388 55.99542511 59.50854492 55.98632812 C57.57237958 55.99157026 55.6362168 55.99784889 53.70005798 56.00511169 C49.65278052 56.01548904 45.60585524 56.01099294 41.55859375 55.99633789 C36.39272304 55.97915594 31.22796528 56.00265229 26.06221867 56.03782749 C22.06681562 56.0598729 18.07167595 56.05834273 14.076231 56.05006218 C12.17258928 56.04924654 10.26892747 56.05603528 8.36534309 56.07083321 C-3.23209256 56.14717889 -11.99127564 55.91040467 -21.33520508 48.27929688 C-26.98503636 41.71820248 -30.3905303 35.29775489 -30.00317383 26.45898438 C-28.72704127 17.4570763 -24.54440769 10.75260366 -17.78833008 4.81445312 C-11.92054426 0.86944458 -6.90633695 -0.02588242 0 0 Z M-15.27270508 18.31445312 C-17.6600259 23.52411768 -18.92394129 27.81082237 -17.01879883 33.49414062 C-14.83213213 38.46467291 -12.55781381 40.72398963 -7.71411133 43.41992188 C-4.75833197 43.80038954 -2.18176574 43.96837402 0.76635742 43.9375 C2.01142563 43.94801392 2.01142563 43.94801392 3.28164673 43.95874023 C6.01257242 43.97627791 8.7424533 43.9647128 11.47338867 43.95117188 C13.37858274 43.95386801 15.28377547 43.95775144 17.18896484 43.96276855 C21.17681004 43.96865787 25.16429623 43.9601189 29.15209961 43.94140625 C34.25667398 43.91861706 39.36040704 43.93174318 44.46495056 43.95569611 C48.39756579 43.97016939 52.32998246 43.96554107 56.26260376 43.95518494 C58.14442037 43.95252188 60.02625517 43.95577256 61.90805054 43.96510315 C64.54099078 43.97529402 67.17257997 43.95973288 69.80541992 43.9375 C70.9651683 43.94964539 70.9651683 43.94964539 72.14834595 43.96203613 C77.33495245 43.88114324 80.28066147 42.68201928 84.28588867 39.41992188 C86.99056571 35.91251984 88.16374065 32.27495801 88.78588867 27.91992188 C88.16448608 23.57010375 87.10635166 19.8483042 84.28588867 16.41992188 C78.96511543 12.80770616 75.25323654 11.83359718 68.89135742 11.90234375 C67.67774033 11.89182983 67.67774033 11.89182983 66.43960571 11.88110352 C63.78384361 11.86359929 61.12916029 11.87511884 58.47338867 11.88867188 C56.61685991 11.88597477 54.76033254 11.88209054 52.90380859 11.8770752 C49.02028909 11.87119041 45.13713858 11.87971012 41.25366211 11.8984375 C36.28709031 11.92122647 31.32138325 11.90809791 26.35484314 11.88414764 C22.52341246 11.86966203 18.69218525 11.87430831 14.86074829 11.88465881 C13.02999773 11.88731847 11.19922841 11.88408325 9.36849976 11.8747406 C6.80531196 11.86452922 4.2435054 11.880139 1.68041992 11.90234375 C0.55647324 11.89019836 0.55647324 11.89019836 -0.59017944 11.87780762 C-6.49893998 11.9721685 -11.36803259 13.56817203 -15.27270508 18.31445312 Z " fill="#2B2B2B" transform="translate(214.714111328125,54.580078125)"/>
<path d="M0 0 C9.39033434 7.17006006 12.06524555 20.31246329 15.55078125 31.0625 C16.06565458 32.63677681 16.5809626 34.21091151 17.09667969 35.78491211 C17.90139381 38.24297749 18.7049153 40.70140142 19.50485229 43.161026 C21.1636683 48.25733139 22.85587618 53.34095316 24.57798767 58.41621399 C25.70519165 61.74323572 26.81901809 65.07465312 27.93087769 68.40682983 C28.46340552 69.99350392 29.00131735 71.57838254 29.54495239 73.1612854 C36.3545963 93.02660563 36.3545963 93.02660563 32.42578125 103.4375 C28.48249867 111.1580322 23.19834371 116.7537504 14.98828125 119.75 C6.48749395 122.27127559 -1.29630496 120.88743943 -9.01171875 116.75 C-19.67559012 110.37279375 -23.04887846 96.52211387 -26.61328125 85.3828125 C-27.01702972 84.14562469 -27.4207782 82.90843689 -27.83676147 81.63375854 C-28.68431619 79.03548107 -29.52584307 76.4353656 -30.36230469 73.83349609 C-31.42074189 70.54125761 -32.48945573 67.25248094 -33.5621891 63.96487617 C-34.60356107 60.77198963 -35.6397762 57.57744486 -36.67578125 54.3828125 C-37.05191559 53.22403595 -37.42804993 52.0652594 -37.81558228 50.87136841 C-47.33697988 21.27154184 -47.33697988 21.27154184 -41.01171875 7.75 C-37.31565842 1.48905795 -31.19470891 -2.03467649 -24.57421875 -4.5625 C-15.30411047 -6.35146826 -8.08712926 -5.02501236 0 0 Z M-29.55859375 12.515625 C-32.87342039 17.24577088 -33.44314409 20.9904006 -33.01171875 26.75 C-32.38121435 29.35695601 -31.70550616 31.76674362 -30.84375 34.2890625 C-30.61271576 34.99650101 -30.38168152 35.70393951 -30.14364624 36.43281555 C-29.38277881 38.7511459 -28.60450075 41.06313803 -27.82421875 43.375 C-27.28302579 44.99923579 -26.74242735 46.62366978 -26.20239258 48.24829102 C-25.06631441 51.65914535 -23.92210796 55.06715989 -22.77441406 58.47412109 C-21.28963983 62.89608568 -19.84872046 67.33099409 -18.42176819 71.77191162 C-17.30214406 75.24568842 -16.16324755 78.71295595 -15.02035522 82.17913818 C-14.47681156 83.839525 -13.94058142 85.50232541 -13.41201782 87.1675415 C-9.81649248 99.22193299 -9.81649248 99.22193299 -1.01171875 107.75 C3.15249455 109.83210665 8.68610431 109.46970127 13.0625 108.1015625 C17.77524233 105.7094113 20.23730938 102.57429531 21.98828125 97.75 C23.03557811 88.6956426 19.63149614 80.77300826 16.67578125 72.375 C15.56892082 69.16891863 14.47174529 65.95955355 13.375 62.75 C13.09381317 61.93101227 12.81262634 61.11202454 12.5229187 60.26821899 C10.54525766 54.47836119 8.68048249 48.66059096 6.8828125 42.8125 C6.63689865 42.01451996 6.3909848 41.21653992 6.13761902 40.39437866 C5.18648625 37.30077368 4.23796367 34.20655869 3.30722046 31.10675049 C2.66747865 28.9774145 2.01623219 26.85187817 1.36328125 24.7265625 C0.99976563 23.52080566 0.63625 22.31504883 0.26171875 21.07275391 C-1.94744103 15.30843936 -4.9382016 11.26243495 -10.01171875 7.75 C-17.54289899 5.23960659 -24.26146007 6.4694017 -29.55859375 12.515625 Z " fill="#282828" transform="translate(420.01171875,144.25)"/>
<path d="M0 0 C5.54668759 4.20635691 9.57851193 10.78538035 10.88252258 17.61634827 C11.9083668 26.56672106 9.15810243 35.01065197 6.3203125 43.375 C5.93642868 44.53752792 5.55254486 45.70005585 5.1570282 46.89781189 C3.93475814 50.59060577 2.69623392 54.277702 1.45703125 57.96484375 C0.64409773 60.41174932 -0.16776025 62.85901249 -0.97851562 65.30664062 C-2.54391917 70.02678198 -4.11788202 74.74391534 -5.69995117 79.45849609 C-7.04173875 83.45895146 -8.37012989 87.46310295 -9.67700195 91.47509766 C-9.94853592 92.30464462 -10.22006989 93.13419159 -10.49983215 93.98887634 C-10.98682171 95.47910477 -11.47024102 96.97050773 -11.94902039 98.46339417 C-15.15655598 108.23918402 -19.7883843 114.0479156 -28.85546875 118.90234375 C-35.65674762 122.08592109 -42.99335937 121.84445373 -49.98046875 119.33984375 C-58.20820119 115.65288818 -63.61835044 110.31519359 -66.85546875 101.90234375 C-70.81013286 90.03835141 -65.47316912 78.35780378 -61.54296875 67.21484375 C-60.90128794 65.35678976 -60.26133367 63.49813867 -59.62304688 61.63891602 C-58.65144899 58.81096885 -57.67810605 55.98372693 -56.69723511 53.15898132 C-54.61968422 47.171534 -52.62039781 41.16450279 -50.6875 35.12890625 C-50.20173852 33.62323947 -49.7158215 32.11762286 -49.22973633 30.61206055 C-48.5500404 28.50565321 -47.87389345 26.39854156 -47.21102905 24.28677368 C-43.37782091 12.10354831 -39.41981074 3.08256275 -27.85546875 -3.09765625 C-18.48286575 -7.39343262 -8.62579706 -5.10283994 0 0 Z M-30.55932617 13.79541016 C-33.15922793 18.02165845 -34.39779721 22.82615301 -35.82177734 27.54983521 C-36.64206926 30.27066321 -37.49316067 32.98156057 -38.34249878 35.69343567 C-38.7956455 37.14102138 -39.24721539 38.58910153 -39.69729614 40.03764343 C-42.45424446 48.88940947 -45.40842755 57.67496621 -48.35546875 66.46484375 C-48.87719373 68.0248491 -49.39876317 69.58490648 -49.92016602 71.14501953 C-50.84103861 73.89980488 -51.76272597 76.65431399 -52.68554688 79.40844727 C-53.07162109 80.56143311 -53.45769531 81.71441895 -53.85546875 82.90234375 C-54.22945801 83.99675781 -54.60344727 85.09117187 -54.98876953 86.21875 C-56.68621929 91.47462823 -56.79760955 96.70556216 -54.29296875 101.71484375 C-51.90203746 105.29707531 -48.95844524 107.58408705 -44.85546875 108.90234375 C-39.34921055 109.76103675 -34.08880628 109.60023503 -29.42221069 106.30050659 C-23.22217986 100.76758985 -21.42136621 90.01816245 -18.94140625 82.33203125 C-18.48164043 80.92276318 -18.02131348 79.51367807 -17.56045532 78.10476685 C-16.3556518 74.41655165 -15.15829592 70.72596157 -13.96258545 67.03479004 C-12.74640981 63.28477153 -11.52335872 59.53699774 -10.30078125 55.7890625 C-8.15033388 49.194434 -6.00600729 42.59784852 -3.86630249 35.99972534 C-3.18328712 33.9068399 -2.47790683 31.82114134 -1.75210571 29.7427063 C-0.30554555 25.16029949 0.08416065 21.2094695 -1.73046875 16.75390625 C-4.59061134 11.69220653 -7.47377088 9.09150898 -12.85546875 6.90234375 C-20.20797579 5.66267687 -25.9045837 8.02695629 -30.55932617 13.79541016 Z " fill="#282828" transform="translate(113.85546875,144.09765625)"/>
<path d="M0 0 C1.18142578 -0.03867187 1.18142578 -0.03867187 2.38671875 -0.078125 C10.76200583 0.86115953 16.71007584 4.53600681 23.25 9.625 C24.91858599 10.88892545 26.58787429 12.15192419 28.2578125 13.4140625 C29.09731445 14.05375977 29.93681641 14.69345703 30.80175781 15.35253906 C34.69820376 18.29722769 38.65882165 21.1503096 42.625 24 C43.37177002 24.53858643 44.11854004 25.07717285 44.88793945 25.63208008 C48.82553753 28.47028933 52.77372973 31.29292347 56.7331543 34.10058594 C58.99469669 35.70870747 61.24581284 37.33113756 63.49707031 38.95361328 C64.78240004 39.87145901 66.07408515 40.78043484 67.37011719 41.68310547 C76.85512744 48.2925015 84.5142083 53.85512491 88.3125 65.25 C89.15735398 74.34949286 88.24239528 82.12250683 82.58203125 89.5078125 C77.31285947 95.20819394 71.93985103 98.69816683 64.16796875 99.625 C52.96654345 100.04228243 45.62604949 95.8896212 36.875 89.3125 C35.29313237 88.14691333 33.71109635 86.98155516 32.12890625 85.81640625 C30.93031982 84.92719482 30.93031982 84.92719482 29.70751953 84.02001953 C25.93288971 81.23041033 22.1217361 78.492049 18.3125 75.75 C16.82278423 74.67336031 15.33320139 73.59653667 13.84375 72.51953125 C10.74458422 70.28072084 7.63973448 68.05007055 4.53125 65.82421875 C-25.05829494 44.61331497 -25.05829494 44.61331497 -27.6875 31.25 C-28.66838258 23.54306541 -25.67529877 16.34862749 -21.5625 9.9375 C-15.32291735 4.10484665 -8.6172282 0.16651649 0 0 Z M-13.0625 19 C-15.73324084 24.34148169 -16.31594561 28.19009495 -14.5625 33.9375 C-10.67612435 40.80343031 -4.25640192 45.06077403 1.9375 49.75 C2.86393311 50.45415039 3.79036621 51.15830078 4.74487305 51.88378906 C11.51791914 56.99138872 18.43034985 61.84530848 25.47021484 66.57592773 C31.46303446 70.61643562 37.26113029 74.86919115 42.97583008 79.29394531 C49.31635464 84.15963275 54.59518928 88.01935658 62.8828125 87.62890625 C67.41355925 86.92234285 70.54246223 85.27740231 73.62890625 81.7421875 C76.22316009 77.85532634 76.77493278 74.2670037 76.84375 69.65625 C75.43622952 63.28101017 71.88506301 59.43000355 66.75 55.6875 C66.1940918 55.27677246 65.63818359 54.86604492 65.06542969 54.44287109 C63.83071985 53.53271547 62.59172073 52.628358 61.34912109 51.72900391 C59.16392925 50.14210722 56.99710187 48.5321989 54.83203125 46.91796875 C45.76300804 40.17065303 36.59873437 33.5697913 27.33984375 27.0859375 C24.64740611 25.19830812 21.97462518 23.28707611 19.31640625 21.3515625 C18.68259033 20.89168945 18.04877441 20.43181641 17.39575195 19.95800781 C16.21534806 19.09970374 15.03785272 18.23737789 13.86401367 17.37011719 C4.37698593 10.48995716 -5.16217428 9.85225443 -13.0625 19 Z " fill="#272727" transform="translate(117.6875,345.75)"/>
<path d="M0 0 C5.67092895 4.27857811 9.58013529 10.77309752 10.99609375 17.703125 C11.86719423 26.4607959 10.18094274 33.83216855 4.76953125 40.75 C-1.32290897 47.40250759 -9.09000062 52.20849495 -16.47216797 57.29492188 C-20.25865462 59.92635824 -23.99023828 62.632515 -27.72265625 65.33984375 C-28.46241699 65.87520752 -29.20217773 66.41057129 -29.96435547 66.9621582 C-32.23854415 68.60807578 -34.51188916 70.25515361 -36.78515625 71.90234375 C-42.13882972 75.77967129 -47.49599807 79.65199953 -52.86132812 83.51318359 C-54.55471457 84.73594614 -56.24083632 85.96875614 -57.92578125 87.203125 C-58.786875 87.82574219 -59.64796875 88.44835937 -60.53515625 89.08984375 C-61.23125 89.59902344 -61.92734375 90.10820312 -62.64453125 90.6328125 C-69.26713266 94.5604502 -76.29975508 94.74775376 -83.78515625 93.90234375 C-91.55127481 91.49291085 -97.98706274 86.68484186 -102.1015625 79.65234375 C-105.37872088 72.52709348 -106.22986878 64.947249 -104.0546875 57.3515625 C-100.9637805 49.84507408 -96.22521468 44.89282595 -89.59765625 40.33984375 C-88.34841709 39.47082963 -87.09974719 38.60099675 -85.8515625 37.73046875 C-85.19172363 37.27349609 -84.53188477 36.81652344 -83.85205078 36.34570312 C-80.21414593 33.80527158 -76.62756501 31.19400913 -73.03515625 28.58984375 C-71.50009642 27.48033534 -69.96493923 26.37096161 -68.4296875 25.26171875 C-65.36341522 23.04457793 -62.29852468 20.82554187 -59.234375 18.60546875 C-55.50708377 15.90546614 -51.77265228 13.21553199 -48.03613281 10.52832031 C-45.72386428 8.85806994 -43.42239917 7.17359526 -41.12109375 5.48828125 C-39.61358051 4.396722 -38.10577847 3.30556147 -36.59765625 2.21484375 C-35.91501709 1.70945068 -35.23237793 1.20405762 -34.52905273 0.68334961 C-23.49300675 -7.24126014 -11.43912091 -7.03368266 0 0 Z M-40.4140625 19.37109375 C-44.13295258 22.19270317 -47.9577725 24.85583078 -51.78515625 27.52734375 C-61.62580248 34.41882608 -71.22919783 41.62275506 -80.78515625 48.90234375 C-81.61716553 49.53076172 -82.4491748 50.15917969 -83.30639648 50.80664062 C-84.11278564 51.42216797 -84.9191748 52.03769531 -85.75 52.671875 C-86.47566162 53.22335205 -87.20132324 53.7748291 -87.94897461 54.34301758 C-91.21753684 57.11875312 -92.44646505 59.81569453 -93.125 63.99609375 C-93.55686962 70.14760251 -91.71910782 74.23420066 -87.78515625 78.90234375 C-84.68931846 81.81607343 -81.78570753 82.21089521 -77.66015625 82.52734375 C-70.60880903 82.29229884 -66.29117016 79.02826018 -60.78515625 74.90234375 C-59.64310246 74.06999946 -58.49981468 73.23934638 -57.35546875 72.41015625 C-54.82165737 70.56707531 -52.30082072 68.70760063 -49.78515625 66.83984375 C-46.47351148 64.39182399 -43.11637528 62.01753801 -39.73779297 59.66308594 C-32.21640885 54.42021277 -24.84027068 49.00532477 -17.53515625 43.46484375 C-16.19493408 42.45321167 -16.19493408 42.45321167 -14.82763672 41.42114258 C-5.54469095 34.8003013 -5.54469095 34.8003013 -0.78515625 24.90234375 C-0.88564879 18.57131381 -2.32701533 14.46921981 -6.78515625 9.90234375 C-10.80856811 7.06766721 -14.53000049 6.23947023 -19.375 6.43359375 C-27.33304067 7.98134882 -34.14423634 14.57886994 -40.4140625 19.37109375 Z " fill="#272727" transform="translate(398.78515625,351.09765625)"/>
<path d="M0 0 C0.66 0.33 1.32 0.66 2 1 C-6.88671875 9.88671875 -6.88671875 9.88671875 -8.47607422 11.47412109 C-9.88062096 12.88046796 -11.27851705 14.29344863 -12.67578125 15.70703125 C-14.56358119 17.569449 -16.46206656 19.30813073 -18.5 21 C-21.49659201 23.53103833 -24.26870814 26.18594172 -27 29 C-23.68009752 21.79106891 -17.46520131 16.37617334 -11.9375 10.8125 C-11.44330566 10.31363281 -10.94911133 9.81476563 -10.43994141 9.30078125 C-7.11353101 5.9886851 -3.64288546 2.96085935 0 0 Z " fill="#585858" transform="translate(170,150)"/>
<path d="M0 0 C0.99 0.33 1.98 0.66 3 1 C1.03580523 2.96419477 -0.92859724 4.92817052 -2.89453125 6.890625 C-4.12647802 8.12485738 -5.35481994 9.36274396 -6.57421875 10.609375 C-9.79430836 13.89715418 -9.79430836 13.89715418 -12 15 C-10.58397787 11.85093585 -8.86264918 9.50476328 -6.5625 6.9375 C-5.96566406 6.26589844 -5.36882812 5.59429687 -4.75390625 4.90234375 C-3.20703058 3.2245521 -1.62828434 1.59840757 0 0 Z " fill="#767676" transform="translate(155,164)"/>
<path d="M0 0 C0.66 0.33 1.32 0.66 2 1 C0.5741914 4.45195767 -1.09746334 6.1014256 -4.125 8.25 C-4.84945313 8.77078125 -5.57390625 9.2915625 -6.3203125 9.828125 C-6.87460937 10.21484375 -7.42890625 10.6015625 -8 11 C-8 7.0234755 -6.61988497 5.9109833 -4 3 C-1.75 1.1875 -1.75 1.1875 0 0 Z " fill="#757575" transform="translate(388,143)"/>
<path d="M0 0 C0.66 0.33 1.32 0.66 2 1 C0.92492371 2.29854721 -0.16043736 3.58858361 -1.25 4.875 C-1.85328125 5.59429687 -2.4565625 6.31359375 -3.078125 7.0546875 C-4.97087634 8.97052118 -6.53657727 9.96449045 -9 11 C-7.44095325 7.17324889 -4.96833913 4.81992217 -2 2 C-1.34 1.34 -0.68 0.68 0 0 Z " fill="#808080" transform="translate(103,350)"/>
<path d="M0 0 C2.0625 0.4375 2.0625 0.4375 4 1 C2.71034824 2.37562854 1.37310707 3.70766393 0 5 C-0.66 5 -1.32 5 -2 5 C-1.125 1.125 -1.125 1.125 0 0 Z " fill="#5B5B5B" transform="translate(303,396)"/>
</svg>
