<?xml version="1.0" encoding="UTF-8"?>
<svg version="1.1" viewBox="0 0 1808 2048" width="1280" height="1280" xmlns="http://www.w3.org/2000/svg">
<path transform="translate(0)" d="m0 0h1808v2048h-1808z" fill="#FEFEFE"/>
<path transform="translate(286,654)" d="m0 0h1309l84 1v735l-1 1h-1480l-1-1v-735z" fill="#FEFEFE"/>
<path transform="translate(1329,107)" d="m0 0 22 1 27 3 26 6 24 8 25 12 15 8 18 13 14 12 8 7 19 19 13 18 11 17 12 23 6 15 6 18 5 21 2 12v167l-1 23-4 12-6 8-7 7-8 4-11 4-10 1h-323l-84-1-16-6-9-7-8-11-4-10-1-5v-187l5-24 8-26 10-23 8-15 12-18 10-13 18-20 10-10 8-7 12-9 12-8 13-8 17-9 27-10 17-5 21-4z" fill="#FEFEFE"/>
<path transform="translate(533,107)" d="m0 0h10l32 3 26 5 26 8 17 7 24 12 20 14 10 8 13 12 2 1v2l4 2 8 8 7 8 11 15 13 20 13 25 7 19 7 25 3 15 1 17-1 175-3 10-7 12-9 8-14 6-12 2h-323l-84-1-15-5-9-6-8-8-5-10-2-7-1-8v-93l1-92 3-15 7-25 10-25 11-21 10-15 13-17 9-10 7-8 8-8 11-9 10-8 15-10 20-12 24-10 21-7 22-5 24-3z" fill="#FEFEFE"/>
<path transform="translate(333,1500)" d="m0 0h382l34 1 12 4 10 7 8 9 4 8 3 11v183l-4 23-7 24-10 25-11 21-8 12-8 11-11 14-8 8-7 8-15 13-10 8-15 10-19 11-17 8-25 9-20 5-17 3-11 1h-43l-18-2-29-6-29-10-21-10-16-9-18-13-11-9-10-9-17-17-11-14-13-20-13-24-8-20-7-23-4-19-1-7-1-22v-62l1-102 4-13 7-11 9-8 11-5z" fill="#FEFEFE"/>
<path transform="translate(1128,1500)" d="m0 0h381l36 1 13 5 9 6 7 8 5 10 2 8v187l-3 19-6 22-8 21-12 25-13 20-14 18-7 7-7 8-8 8-8 7-11 9-18 12-17 10-17 8-25 9-21 5-16 3-11 1h-44l-24-3-26-6-23-8-22-10-19-11-18-13-14-12-8-7-7-7-7-8-11-14-15-23-10-18-7-16-7-21-6-25-1-8v-191l4-11 6-9 8-8 12-6z" fill="#FEFEFE"/>
<path transform="translate(1127,1490)" d="m0 0h180l236 1 16 4 8 4 10 9 6 7 6 13 2 9h40l1 1v172l-1 45-1 1-44 1-12 33-12 25-14 22-8 11-11 13-2 5 19 19 3 5-1 5-7 8-8 7-7 7-10 8-12 9-20 13-17 10-28 12-19 7-25 6-34 5-13 1h-28l-34-4-26-6-26-8-19-8-22-11-20-12-14-11-14-12-11-9-11-11-2-4 1-6 17-16 5-5-20-26-12-19-12-23-8-19-7-21-4-1h-30l-11-1-1-1v-214l1-4 4-1 36-1 5-14 7-11 7-7 11-7 11-4zm1 10-13 4-9 6-8 8-7 14-1 4v191l3 17 7 26 7 18 8 16 9 16 15 22 11 13 12 13 11 10 14 11 19 13 22 12 25 10 20 6 24 5 18 2h44l17-2 23-5 17-5 25-10 19-10 18-12 11-8 10-9 12-11 16-17 12-16 11-17 12-23 10-26 7-26 2-15v-187l-4-13-7-10-8-7-11-5-6-2-36-1z" fill="#030303"/>
<path transform="translate(536,57)" d="m0 0 35 2 27 4 30 8 23 8 31 15 23 14 17 13 11 9 11 11 5 4 6 8-1 5-7 8-11 11h-2l-1 3h-2l9 11 13 17 13 21 8 15 10 24 6 19v3h46l1 1v166l-1 52h-40l-3 11-7 14-10 10-13 8-12 3-11 1h-76l-320-1-20-2-10-4-13-9-8-9-7-15-2-7-39-1-1-19v-108l1-92h46l3-11 7-20 11-24 10-17 11-16 10-12 6-8-4-6-17-17-2-5 7-8 9-9 8-7 11-10 19-13 19-12 16-8 20-9 19-7 19-5 29-5zm-3 50-30 3-25 5-20 6-27 11-16 9-12 8-14 10-13 11-10 9-7 7-7 8-14 18-13 20-11 21-11 29-7 27-1 7-1 92v93l2 12 4 10 9 10 8 6 13 5 4 1 84 1h323l12-2 14-6 9-8 8-14 2-8 1-175-1-17-5-23-8-26-8-18-10-19-8-12-12-17-9-10-7-8-4-4h-2v-2l-8-7-10-9-18-13-13-8-24-12-19-7-24-7-22-4-32-3z" fill="#030303"/>
<path transform="translate(1318,58)" d="m0 0h37l26 3 18 3 34 10 20 8 16 8 22 12 12 8 17 13 20 18 9 9 2 6-6 8-7 7h-2l-2 4-5 5h-2l8 10 10 13 15 23 11 21 9 22 6 20 45 1 1 1v217l-1 1h-40l-1 7-5 12-8 11-10 8-12 6-9 2-11 1h-75l-320-1-15-1-13-4-10-6-10-9-7-10-4-12v-4l-41-1-1-63 1-156h45l4-10 9-25 8-17 11-19 11-16 9-11 7-9-1-5-12-12-5-4-4-5 1-5 9-10 12-11 13-11 18-13 25-15 23-11 23-9 22-6 30-5zm11 49-31 3-25 5-30 10-18 8-18 10-10 7-14 10-10 9-8 7-11 11-7 8-12 15-10 15-8 13-10 21-9 25-6 24-2 11v187l4 13 7 11 8 7 10 5 9 3 84 1h323l13-2 13-5 10-9 4-5 4-8 2-7 1-23v-167l-5-25-6-20-7-19-11-22-18-27-10-13-23-23-11-9-13-10-15-10-30-15-19-7-22-6-14-3-40-4z" fill="#030303"/>
<path transform="translate(331,1490)" d="m0 0h185l232 1 15 4 12 7 7 6 8 11 5 14 1 3 10 1h29l1 1v168l-1 51h-33l-12-1-3 11-10 26-11 23-12 19-10 13-8 10-4 6 1 6 4 2 15 15 2 3-1 4-9 10-12 11-11 10-17 12-19 12-16 9-28 12-27 9-27 5-22 3-12 1h-27l-35-4-27-6-20-6-20-8-21-10-19-11-12-8-16-12-15-14-12-12-4-6 2-5 7-7 8-7 5-6-1-4-16-21-12-18-12-23-10-22-6-21-8-1-38-1v-218l39-1 8-18 6-10 9-8 10-6 9-3zm2 10-13 4-10 6-8 9-6 12-2 8-1 102v62l1 22 4 22 7 24 8 21 12 23 11 17 8 11 11 13 14 14 12 11 16 12 15 10 25 13 21 8 15 5 29 6 18 2h43l17-2 24-5 27-9 18-8 15-8 14-9 14-10 14-12 10-9 11-12 11-14 11-15 11-19 9-19 9-25 5-19 3-19v-183l-4-13-5-9-8-8-11-6-9-3-34-1z" fill="#030303"/>
<path transform="translate(188,644)" d="m0 0h1501v757h-1502v-756zm98 10-89 1v735l1 1h1480l1-1v-735l-84-1z" fill="#030303"/>
<path transform="translate(517,69)" d="m0 0h48l25 3 28 6 25 9 20 9 24 13 20 14 14 11 10 9 3 2v2l3 1v2h2l3 4-2 4-10 10-5 4-5-2-13-11-17-13-12-8-21-12-24-11-25-8-17-4-19-3-12-1h-35l-26 2-26 6-24 8-24 10-18 10-18 12-15 12-16 14-5-5-10-9-4-6 8-8 8-7 13-11 18-13 16-10 21-11 25-10 20-6 24-5 13-2z" fill="#FEFEFE"/>
<path transform="translate(1312,69)" d="m0 0h48l26 3 27 6 23 8 18 8 22 11 21 14 16 12 14 12 10 10-1 5-7 7-8 7h-3l-8-7-16-13-16-11-23-14-26-12-25-8-23-5-14-2-14-1h-34l-24 2-30 7-31 11-23 11-21 13-17 13-15 14-5 2-8-7-9-9-1-3 13-13 11-9 18-14 15-10 27-14 20-8 24-8 24-5z" fill="#FEFEFE"/>
<path transform="translate(1517,1873)" d="m0 0 5 3 14 14-2 5-13 12-14 12-19 14-22 13-26 12-27 9-21 5-25 4-12 1h-43l-30-4-30-8-21-7-33-16-16-10-17-12-13-11-8-7-10-10 1-4 15-14 5 1 13 11 14 11 12 8 18 11 26 13 31 10 16 4 21 3 13 1h29l18-1 22-4 26-7 29-11 20-10 19-12 13-10 14-12z" fill="#FEFEFE"/>
<path transform="translate(355,1873)" d="m0 0 5 2 10 9 14 11 27 18 21 11 16 7 33 10 17 3 13 2 13 1h27l19-1 23-4 25-7 24-9 18-8 22-13 11-8 15-12 8-7 5-4 4 1 7 7 7 6 1 5-7 7-8 7-11 10-12 9-13 9-17 10-23 11-28 10-24 6-26 4-11 1h-43l-31-4-25-6-20-7-23-10-19-10-24-16-14-11-10-9-12-12 1-4 12-12h2z" fill="#FEFEFE"/>
<path transform="translate(255,1547)" d="m0 0h29v118l-1 80h-29l-1-4v-141z" fill="#FEFEFE"/>
<path transform="translate(255,300)" d="m0 0h29l1 2v156l-1 39-2 1h-27z" fill="#FEFEFE"/>
<path transform="translate(1051,300)" d="m0 0h29v197l-1 1h-28l-1-1v-196z" fill="#FEFEFE"/>
<path transform="translate(797,1548)" d="m0 0h29v197l-1 1h-28l-1-1z" fill="#FEFEFE"/>
<path transform="translate(797,301)" d="m0 0h29l1 3-1 194-1 1h-28z" fill="#FEFEFE"/>
<path transform="translate(1592,1548)" d="m0 0h29v198h-29l-1-4z" fill="#FEFEFE"/>
<path transform="translate(1593,301)" d="m0 0h29l-1 198h-27l-2-1v-195z" fill="#FEFEFE"/>
<path transform="translate(1050,1547)" d="m0 0h29l1 1-1 196-1 1h-28z" fill="#FEFEFE"/>
</svg>
