<?xml version="1.0" encoding="UTF-8"?>
<svg version="1.1" viewBox="0 0 2048 2048" width="1280" height="1280" xmlns="http://www.w3.org/2000/svg">
<path transform="translate(575,383)" d="m0 0h896l21 2 16 5 16 8 14 11 7 7 10 14 7 14 4 12 2 12v1112l-3 15-6 15-6 11-8 10-8 9-17 12-16 7-16 4-9 1h-912l-14-2-15-5-15-8-10-8-13-13-9-14-5-10-4-12-2-11-1-11v-1093l2-17 5-16 8-16 10-13 10-10 10-7 15-8 17-5zm-1 65-10 2-9 6-6 7-4 10-1 10v1085l2 11 5 9 8 7 11 4h908l10-4 6-4v-2h2l5-9 2-7v-1100l-5-12-9-8-10-4-7-1z"/>
<path transform="translate(1693,415)" d="m0 0h70l21 3 15 5 16 9 13 11 9 10 10 16 6 16 3 15 1 44v41l-1 259-3 15-6 15-8 14-13 15-13 10-16 8-15 5-14 2h-81l-13-3-12-6-10-8-7-7-7-11-4-9-2-8-1-11v-388l2-14 5-12 6-10 9-10 13-9 13-5zm4 65-1 2v381h69l9-3 9-6 5-7 3-10v-332l-5-12-7-7-8-4-11-2z"/>
<path transform="translate(1694,1119)" d="m0 0h67l19 2 16 5 14 7 11 8 10 9 10 13 7 12 6 17 2 12 1 46v38l-1 260-3 15-6 15-8 14-13 15-13 10-16 8-15 5-14 2h-81l-13-3-12-6-10-8-7-7-7-11-4-9-2-8-1-11v-388l2-14 5-12 6-10 9-10 13-9 13-5zm3 65-1 2v381h69l9-3 9-6 5-7 3-10v-332l-5-12-7-7-8-4-11-2z"/>
<path transform="translate(285,415)" d="m0 0h68l16 2 12 5 11 7 11 11 7 11 5 13 1 6v404l-3 11-4 9-7 11-9 9-9 6-11 5-15 3h-80l-17-3-13-5-13-7-10-8-13-13-9-14-5-10-4-12-2-11-1-11v-326l2-16 5-16 8-16 10-13 10-10 13-9 12-6 16-5zm1 65-10 2-9 6-6 7-4 10-1 14v312l2 12 6 10 8 6 10 4h69v-383z"/>
<path transform="translate(285,1119)" d="m0 0h68l16 2 12 5 11 7 11 11 7 11 5 13 1 6v404l-3 11-4 9-5 8-9 10-11 8-11 5-15 3h-80l-17-3-13-5-13-7-10-8-13-13-9-14-5-10-4-12-2-11-1-11v-326l2-16 5-16 8-16 10-13 10-10 13-9 12-6 16-5zm1 65-10 2-9 6-6 7-4 10-1 14v312l2 12 6 10 8 6 10 4h69v-383z"/>
<path transform="translate(862,95)" d="m0 0h322l20 2 16 5 16 8 14 11 7 7 8 11 7 12 6 17 2 12v85l-3 12-8 16-11 12-10 7-11 5-15 3h-399l-13-3-12-6-10-8-7-7-8-13-4-11-2-16v-67l2-17 5-16 8-16 10-13 10-10 13-9 15-7 14-4zm0 65-10 2-9 6-6 7-4 10-1 9v61h383v-70l-5-12-7-7-8-4-11-2z"/>
<path transform="translate(831,1727)" d="m0 0h384l17 2 11 4 10 6 10 9 7 8 8 16 2 10v86l-3 15-6 15-8 14-13 15-13 10-16 8-16 5-14 2h-336l-14-2-15-5-15-8-10-8-13-13-9-14-5-10-5-16-2-18v-68l2-15 5-12 6-10 9-10 13-9 13-5zm2 65-1 3v61l2 11 6 10 8 6 10 4h332l10-4 6-4v-2h2l5-8 2-7v-70z"/>
</svg>
