<svg xmlns="http://www.w3.org/2000/svg" xmlns:xlink="http://www.w3.org/1999/xlink" width="4000" zoomAndPan="magnify" viewBox="0 0 3000 2999.999989" height="4000" preserveAspectRatio="xMidYMid meet" version="1.0"><defs><clipPath id="7f8b22d2a2"><path d="M 508.832031 542.601562 L 2461 542.601562 L 2461 2406.550781 L 508.832031 2406.550781 Z M 508.832031 542.601562 " clip-rule="nonzero"/></clipPath><clipPath id="6ff67dca4d"><path d="M 649.832031 542.601562 L 2320.730469 542.601562 C 2398.605469 542.601562 2461.730469 605.726562 2461.730469 683.601562 L 2461.730469 2265.550781 C 2461.730469 2343.425781 2398.605469 2406.550781 2320.730469 2406.550781 L 649.832031 2406.550781 C 571.960938 2406.550781 508.832031 2343.425781 508.832031 2265.550781 L 508.832031 683.601562 C 508.832031 605.726562 571.960938 542.601562 649.832031 542.601562 Z M 649.832031 542.601562 " clip-rule="nonzero"/></clipPath><clipPath id="671dc0881c"><path d="M 75 821.121094 L 460 821.121094 L 460 2149 L 75 2149 Z M 75 821.121094 " clip-rule="nonzero"/></clipPath><clipPath id="8d1e81810a"><path d="M 2511 822 L 2889 822 L 2889 2128.019531 L 2511 2128.019531 Z M 2511 822 " clip-rule="nonzero"/></clipPath></defs><g clip-path="url(#7f8b22d2a2)"><g clip-path="url(#6ff67dca4d)"><path fill="#919191" d="M 508.832031 542.601562 L 2460.160156 542.601562 L 2460.160156 2406.550781 L 508.832031 2406.550781 Z M 508.832031 542.601562 " fill-opacity="1" fill-rule="nonzero"/></g></g><g clip-path="url(#671dc0881c)"><path fill="#919191" d="M 75.582031 1485.050781 C 75.582031 1769.035156 229.894531 2016.710938 459.417969 2148.976562 L 459.417969 821.121094 C 229.894531 953.390625 75.582031 1201.066406 75.582031 1485.050781 Z M 75.582031 1485.050781 " fill-opacity="1" fill-rule="nonzero"/></g><g clip-path="url(#8d1e81810a)"><path fill="#919191" d="M 2888.699219 1475.207031 C 2888.699219 1195.976562 2736.972656 952.449219 2511.292969 822.398438 L 2511.292969 2128.019531 C 2736.972656 1997.96875 2888.699219 1754.4375 2888.699219 1475.207031 Z M 2888.699219 1475.207031 " fill-opacity="1" fill-rule="nonzero"/></g></svg>