<svg xmlns="http://www.w3.org/2000/svg" xmlns:xlink="http://www.w3.org/1999/xlink" width="4000" zoomAndPan="magnify" viewBox="0 0 3000 2999.999989" height="4000" preserveAspectRatio="xMidYMid meet" version="1.0"><defs><clipPath id="133a780df4"><path d="M 538.394531 568.023438 L 2490 568.023438 L 2490 2431.976562 L 538.394531 2431.976562 Z M 538.394531 568.023438 " clip-rule="nonzero"/></clipPath><clipPath id="b0e8d5c2ce"><path d="M 679.394531 568.023438 L 2350.292969 568.023438 C 2428.164062 568.023438 2491.292969 631.152344 2491.292969 709.023438 L 2491.292969 2290.976562 C 2491.292969 2368.847656 2428.164062 2431.976562 2350.292969 2431.976562 L 679.394531 2431.976562 C 601.523438 2431.976562 538.394531 2368.847656 538.394531 2290.976562 L 538.394531 709.023438 C 538.394531 631.152344 601.523438 568.023438 679.394531 568.023438 Z M 679.394531 568.023438 " clip-rule="nonzero"/></clipPath><clipPath id="010a86fbc6"><path d="M 96 907.691406 L 439 907.691406 L 439 2091.941406 L 96 2091.941406 Z M 96 907.691406 " clip-rule="nonzero"/></clipPath><clipPath id="66acf7ca69"><path d="M 2561 908.054688 L 2904 908.054688 L 2904 2092.304688 L 2561 2092.304688 Z M 2561 908.054688 " clip-rule="nonzero"/></clipPath></defs><g clip-path="url(#133a780df4)"><g clip-path="url(#b0e8d5c2ce)"><path fill="#919191" d="M 538.394531 568.023438 L 2489.71875 568.023438 L 2489.71875 2431.976562 L 538.394531 2431.976562 Z M 538.394531 568.023438 " fill-opacity="1" fill-rule="nonzero"/></g></g><g clip-path="url(#010a86fbc6)"><path fill="#919191" d="M 96.320312 1499.421875 C 96.320312 1752.523438 233.851562 1973.265625 438.414062 2091.148438 L 438.414062 907.691406 C 233.851562 1025.574219 96.320312 1246.316406 96.320312 1499.421875 Z M 96.320312 1499.421875 " fill-opacity="1" fill-rule="nonzero"/></g><g clip-path="url(#66acf7ca69)"><path fill="#919191" d="M 2903.675781 1500.578125 C 2903.675781 1247.472656 2766.144531 1026.730469 2561.582031 908.847656 L 2561.582031 2092.304688 C 2766.144531 1974.421875 2903.675781 1753.679688 2903.675781 1500.578125 Z M 2903.675781 1500.578125 " fill-opacity="1" fill-rule="nonzero"/></g></svg>