<?xml version="1.0" encoding="UTF-8"?>
<svg version="1.1" xmlns="http://www.w3.org/2000/svg" width="144" height="134">
<path d="M0 0 C47.52 0 95.04 0 144 0 C144 44.22 144 88.44 144 134 C96.48 134 48.96 134 0 134 C0 89.78 0 45.56 0 0 Z " fill="#FAFAFA" transform="translate(0,0)"/>
<path d="M0 0 C5.23506147 4.03559342 9.46989502 9.00034053 10.40722656 15.72070312 C10.98204621 22.75341279 11.52729594 30.93790343 7.5859375 37.078125 C1.07666763 44.72783298 -4.98226769 48.59984569 -14.921875 50.08984375 C-22.11094581 50.56718648 -29.04675694 47.4636773 -34.67578125 43.15625 C-40.95072314 37.16382919 -43.16920005 30.75172009 -43.42578125 22.15625 C-43.14388525 14.3884492 -41.54889723 9.90237128 -36.55078125 4.09375 C-25.91266632 -5.0599768 -12.57597846 -8.22579723 0 0 Z " fill="#FDFDFD" transform="translate(86.86328125,41.21875)"/>
<path d="M0 0 C2.76854671 4.15282007 1.92340665 7.32982105 1 12 C-2.25662141 25.19626212 -2.25662141 25.19626212 -7 29 C-13.4508055 30.07513425 -20.21354081 27.84493593 -26 25 C-27.35546875 22.859375 -27.35546875 22.859375 -28 21 C-28.99 21 -29.98 21 -31 21 C-32.61140651 15.22501714 -31.12894244 11.18428585 -29.1875 5.75 C-28.77661133 4.52796875 -28.77661133 4.52796875 -28.35742188 3.28125 C-26.28885509 -2.71114491 -26.28885509 -2.71114491 -24 -5 C-16.27486873 -7.57504376 -6.95575842 -3.55187664 0 0 Z " fill="#F5F5F5" transform="translate(131,67)"/>
<path d="M0 0 C2.12835982 1.63719986 3.37654908 2.92068034 5 5 C5.60457031 5.75152344 6.20914063 6.50304687 6.83203125 7.27734375 C10.20310448 11.73320225 12.76808981 15.40433546 13.27587891 21.06665039 C13 23 13 23 10.39453125 25.86328125 C9.22092385 26.7087549 8.02557771 27.52470402 6.8125 28.3125 C5.92594727 28.93608398 5.92594727 28.93608398 5.02148438 29.57226562 C3.36216976 30.73582069 1.68159842 31.86888899 0 33 C-0.73347656 33.5878125 -1.46695313 34.175625 -2.22265625 34.78125 C-4.79352783 36.54413337 -6.9681333 36.20671818 -10 36 C-10 35.34 -10 34.68 -10 34 C-10.56332031 33.94714844 -11.12664063 33.89429688 -11.70703125 33.83984375 C-15.0836588 32.6030892 -16.48573575 30.36110613 -18.6875 27.5625 C-19.47511719 26.57378906 -20.26273438 25.58507812 -21.07421875 24.56640625 C-23.89424982 20.80827153 -24.5562917 18.72847943 -24 14 C-20.60921798 10.16585606 -16.73397124 7.11972715 -12.5625 4.1875 C-11.74168945 3.57745117 -11.74168945 3.57745117 -10.90429688 2.95507812 C-7.15280313 0.31349377 -4.56749823 -0.63112155 0 0 Z " fill="#F1F1F1" transform="translate(48,7)"/>
<path d="M0 0 C3.05732275 1.63260744 5.68038445 3.70640516 8.375 5.875 C9.09816406 6.43058594 9.82132813 6.98617188 10.56640625 7.55859375 C16.78484097 12.40033935 16.78484097 12.40033935 17.359375 16.671875 C16.87191248 21.18620182 14.93518753 23.68986373 12.25 27.25 C11.8065625 27.87390625 11.363125 28.4978125 10.90625 29.140625 C6.50840505 35.14238988 6.50840505 35.14238988 3 36 C-2.99908795 35.84325423 -6.67241091 33.77409958 -11.375 30.375 C-12.00277344 29.96121094 -12.63054687 29.54742187 -13.27734375 29.12109375 C-16.71320901 26.67962578 -17.8428688 25.58389953 -18.9765625 21.37109375 C-19.0316408 13.44899778 -13.75874113 6.98569366 -9 1 C-5.7860291 -0.60698545 -3.57238666 -0.39375003 0 0 Z " fill="#F2F2F2" transform="translate(100,7)"/>
<path d="M0 0 C0.91644287 0.00523682 1.83288574 0.01047363 2.77709961 0.01586914 C3.76645508 0.0190918 4.75581055 0.02231445 5.77514648 0.02563477 C6.81606445 0.03401367 7.85698242 0.04239258 8.92944336 0.05102539 C10.49662109 0.05779297 10.49662109 0.05779297 12.09545898 0.06469727 C14.68600996 0.07652627 17.27644895 0.0930085 19.86694336 0.11352539 C20.19694336 1.76352539 20.52694336 3.41352539 20.86694336 5.11352539 C20.20694336 5.11352539 19.54694336 5.11352539 18.86694336 5.11352539 C18.87854492 6.32911133 18.89014648 7.54469727 18.90209961 8.79711914 C18.91147614 10.38175303 18.92057649 11.96638857 18.92944336 13.55102539 C18.93782227 14.3534668 18.94620117 15.1559082 18.95483398 15.98266602 C18.96345766 18.0264776 18.91922486 20.07036441 18.86694336 22.11352539 C17.31087585 23.6695929 15.80736965 23.24323308 13.64819336 23.24633789 C12.37395508 23.24827148 12.37395508 23.24827148 11.07397461 23.25024414 C9.73399414 23.24444336 9.73399414 23.24444336 8.36694336 23.23852539 C7.47362305 23.24239258 6.58030273 23.24625977 5.65991211 23.25024414 C4.81041992 23.24895508 3.96092773 23.24766602 3.08569336 23.24633789 C2.30129883 23.24520996 1.5169043 23.24408203 0.70874023 23.24291992 C-1.13305664 23.11352539 -1.13305664 23.11352539 -2.13305664 22.11352539 C-2.37199141 19.33775235 -2.55616363 16.58203022 -2.69555664 13.80102539 C-2.73874023 13.02823242 -2.78192383 12.25543945 -2.82641602 11.45922852 C-3.01383673 7.99938259 -3.13305664 4.58123972 -3.13305664 1.11352539 C-2.13305664 0.11352539 -2.13305664 0.11352539 0 0 Z " fill="#FDFDFD" transform="translate(62.133056640625,97.886474609375)"/>
<path d="M0 0 C1.89135742 0.25878906 1.89135742 0.25878906 4 1 C5.02075195 2.68652344 5.02075195 2.68652344 5.73828125 4.859375 C6.00060547 5.64570312 6.26292969 6.43203125 6.53320312 7.2421875 C6.79037109 8.06976563 7.04753906 8.89734375 7.3125 9.75 C7.72725586 10.96816406 7.72725586 10.96816406 8.15039062 12.2109375 C9.52135381 16.45159946 10.52214337 19.62049977 9 24 C7.741875 24.103125 6.48375 24.20625 5.1875 24.3125 C-0.3851218 24.91590491 -5.63960058 26.40690933 -11 28 C-17.1329422 14.60279616 -17.1329422 14.60279616 -17 8 C-14.70967689 7.16280617 -12.41789043 6.3301071 -10.125 5.5 C-9.14853516 5.14228516 -9.14853516 5.14228516 -8.15234375 4.77734375 C-3.2265625 3 -3.2265625 3 -1 3 C-0.67 2.01 -0.34 1.02 0 0 Z " fill="#FBFBFB" transform="translate(31,63)"/>
<path d="M0 0 C3.70379712 2.47827601 4.46993761 6.75518483 5.6875 10.8125 C5.91244141 11.51181641 6.13738281 12.21113281 6.36914062 12.93164062 C7.63191787 17.03470712 8.46624191 20.66331156 8 25 C2.7521403 31.12250299 -6.0715601 33.94603383 -14 34.5625 C-17 34 -17 34 -19.01171875 31.95703125 C-21.36894105 28.45129985 -22.59301824 25.13990919 -23.8125 21.125 C-24.04130859 20.44308594 -24.27011719 19.76117188 -24.50585938 19.05859375 C-25.95087657 14.41863026 -26.31893071 10.80810195 -25 6 C-23.43359375 4.546875 -23.43359375 4.546875 -21.4375 3.75 C-20.71304687 3.45222656 -19.98859375 3.15445313 -19.2421875 2.84765625 C-18.50226562 2.56792969 -17.76234375 2.28820312 -17 2 C-16.34257812 1.68933594 -15.68515625 1.37867188 -15.0078125 1.05859375 C-10.00417048 -1.18199294 -5.29897016 -1.65135559 0 0 Z M-3 1 C-3.33 1.99 -3.66 2.98 -4 4 C-6.328125 4.87890625 -6.328125 4.87890625 -9.25 5.5625 C-12.98927763 6.45689478 -16.45859482 7.49425656 -20 9 C-19.49774941 15.65482032 -18.05097302 22.01378052 -15 28 C-10.50964498 29.49678501 -7.41966296 27.52319464 -3.10546875 25.91015625 C0.09318721 24.97268853 2.68690994 24.83657403 6 25 C7.79355229 19.83960394 5.99283968 15.6852634 4.3125 10.75 C4.05533203 9.92242187 3.79816406 9.09484375 3.53320312 8.2421875 C3.27087891 7.45585938 3.00855469 6.66953125 2.73828125 5.859375 C2.50149658 5.14233398 2.26471191 4.42529297 2.02075195 3.68652344 C1.11708258 1.79026327 1.11708258 1.79026327 -1.10864258 1.25878906 C-2.0448645 1.13068848 -2.0448645 1.13068848 -3 1 Z " fill="#5D5D5D" transform="translate(34,62)"/>
<path d="M0 0 C2.76854671 4.15282007 1.92340665 7.32982105 1 12 C-2.25662141 25.19626212 -2.25662141 25.19626212 -7 29 C-13.4508055 30.07513425 -20.21354081 27.84493593 -26 25 C-27.35546875 22.859375 -27.35546875 22.859375 -28 21 C-28.99 21 -29.98 21 -31 21 C-30.67 20.34 -30.34 19.68 -30 19 C-22.50559651 19.4996269 -16.04349737 21.43764478 -9 24 C-7.25837153 17.68369407 -5.56086351 11.36352045 -4 5 C-4.97582031 4.67386719 -5.95164062 4.34773438 -6.95703125 4.01171875 C-8.24234511 3.57077166 -9.52749278 3.12933992 -10.8125 2.6875 C-11.45509766 2.47416016 -12.09769531 2.26082031 -12.75976562 2.04101562 C-16.15621242 0.86193824 -18.73919265 -0.13406949 -21 -3 C-24.08759559 -2.35932024 -24.08759559 -2.35932024 -24.94921875 -0.15234375 C-25.19285156 0.57855469 -25.43648438 1.30945313 -25.6875 2.0625 C-25.93886719 2.79597656 -26.19023438 3.52945313 -26.44921875 4.28515625 C-26.63097656 4.85105469 -26.81273438 5.41695312 -27 6 C-27.95301425 2.94241261 -28.02643571 2.0826116 -27 -1.125 C-24.95739463 -4.06124522 -23.67611565 -5.20739075 -20.15625 -5.953125 C-13.33118504 -6.10149598 -6.00848486 -3.06816248 0 0 Z " fill="#8F8F8F" transform="translate(131,67)"/>
<path d="M0 0 C3.05732275 1.63260744 5.68038445 3.70640516 8.375 5.875 C9.09816406 6.43058594 9.82132813 6.98617188 10.56640625 7.55859375 C16.78484097 12.40033935 16.78484097 12.40033935 17.359375 16.671875 C16.87191248 21.18620182 14.93518753 23.68986373 12.25 27.25 C11.8065625 27.87390625 11.363125 28.4978125 10.90625 29.140625 C6.75422301 34.80692065 6.75422301 34.80692065 3 36 C0.25 36.125 0.25 36.125 -2 36 C-1.38125 35.79375 -0.7625 35.5875 -0.125 35.375 C2.23744639 34.16317789 2.23744639 34.16317789 2.8125 31.5 C4.5602997 26.34859037 7.78694252 22.34707776 11 18 C9.50807246 14.21989145 7.41440807 12.50570301 4.125 10.1875 C3.26132813 9.56230469 2.39765625 8.93710938 1.5078125 8.29296875 C-0.85248566 6.79955888 -0.85248566 6.79955888 -3.1640625 7.16015625 C-7.04896117 8.93729075 -9.56550464 12.43771189 -12.125 15.75 C-14 18 -14 18 -17 19 C-18.20882096 21.00016466 -18.20882096 21.00016466 -19 23 C-19.15463313 13.87664508 -14.5351598 7.82500438 -9 1 C-5.7860291 -0.60698545 -3.57238666 -0.39375003 0 0 Z " fill="#939393" transform="translate(100,7)"/>
<path d="M0 0 C2.12835982 1.63719986 3.37654908 2.92068034 5 5 C5.60457031 5.75152344 6.20914063 6.50304687 6.83203125 7.27734375 C10.8461215 12.58313718 12.87618812 16.31415857 13 23 C11.02 23.99 11.02 23.99 9 25 C9.33 23.02 9.66 21.04 10 19 C8.88044922 18.41798828 8.88044922 18.41798828 7.73828125 17.82421875 C4.68850972 15.79248793 3.20109089 13.85262743 1.1875 10.8125 C0.58292969 9.91144531 -0.02164063 9.01039062 -0.64453125 8.08203125 C-1.09183594 7.39496094 -1.53914063 6.70789063 -2 6 C-7.54964954 8.07873471 -14.35945502 11.36683737 -17 17 C-16.2581309 20.4311446 -14.45597949 22.75905273 -12.375 25.5 C-10.54913561 27.94697954 -10.02076534 28.80480582 -9.6875 31.9375 C-9.8421875 32.9584375 -9.8421875 32.9584375 -10 34 C-13.16865337 33.70271215 -14.07601885 32.9204038 -16.32421875 30.56640625 C-17.10410156 29.57511719 -17.88398438 28.58382812 -18.6875 27.5625 C-19.47511719 26.57378906 -20.26273438 25.58507812 -21.07421875 24.56640625 C-23.89424982 20.80827153 -24.5562917 18.72847943 -24 14 C-20.60921798 10.16585606 -16.73397124 7.11972715 -12.5625 4.1875 C-11.74168945 3.57745117 -11.74168945 3.57745117 -10.90429688 2.95507812 C-7.15280313 0.31349377 -4.56749823 -0.63112155 0 0 Z " fill="#9B9B9A" transform="translate(48,7)"/>
<path d="M0 0 C1.68996094 0.04060547 1.68996094 0.04060547 3.4140625 0.08203125 C6.19464237 0.15272396 8.97135359 0.2513496 11.75 0.375 C15.13840767 5.79824508 15.2056552 10.37445419 15.125 16.5625 C15.13660156 17.46419922 15.14820312 18.36589844 15.16015625 19.29492188 C15.15628906 20.16052734 15.15242188 21.02613281 15.1484375 21.91796875 C15.14336182 23.0939563 15.14336182 23.0939563 15.13818359 24.29370117 C14.63796664 26.97568203 13.99355715 27.82974057 11.75 29.375 C7.80161415 30.01823049 3.80735662 29.83821294 -0.1875 29.8125 C-1.83395508 29.8424707 -1.83395508 29.8424707 -3.51367188 29.87304688 C-4.57005859 29.87240234 -5.62644531 29.87175781 -6.71484375 29.87109375 C-8.16298462 29.87387329 -8.16298462 29.87387329 -9.64038086 29.87670898 C-13.02212871 29.22655538 -14.19573176 28.10223356 -16.25 25.375 C-16.76757812 23.27197266 -16.76757812 23.27197266 -16.78125 21.0390625 C-16.78640625 20.22179687 -16.7915625 19.40453125 -16.796875 18.5625 C-16.78140625 17.716875 -16.7659375 16.87125 -16.75 16 C-16.76546875 15.16210938 -16.7809375 14.32421875 -16.796875 13.4609375 C-16.7721071 9.52284205 -16.30655421 6.53488782 -14.984375 2.796875 C-10.52793805 -1.15025487 -5.72221359 -0.25889365 0 0 Z M-11.25 1.375 C-11.91 2.695 -12.57 4.015 -13.25 5.375 C-12.92 5.705 -12.59 6.035 -12.25 6.375 C-11.97929101 10.01453196 -11.80354483 13.64743524 -11.64453125 17.29296875 C-11.82300905 21.14973093 -11.82300905 21.14973093 -10.25 24.375 C-8.84651265 24.47360131 -7.43819523 24.50578937 -6.03125 24.5078125 C-5.18175781 24.50910156 -4.33226563 24.51039062 -3.45703125 24.51171875 C-2.56371094 24.50785156 -1.67039062 24.50398438 -0.75 24.5 C0.58998047 24.50580078 0.58998047 24.50580078 1.95703125 24.51171875 C3.23126953 24.50978516 3.23126953 24.50978516 4.53125 24.5078125 C5.31564453 24.50668457 6.10003906 24.50555664 6.90820312 24.50439453 C8.76752988 24.57607442 8.76752988 24.57607442 9.75 23.375 C9.82325168 20.51232433 9.84238205 17.674281 9.8125 14.8125 C9.80798828 14.00619141 9.80347656 13.19988281 9.79882812 12.36914062 C9.78700518 10.37106244 9.76906914 8.37302217 9.75 6.375 C10.41 6.375 11.07 6.375 11.75 6.375 C11.42 4.725 11.09 3.075 10.75 1.375 C3.49 1.375 -3.77 1.375 -11.25 1.375 Z " fill="#FAFAF9" transform="translate(71.25,96.625)"/>
<path d="M0 0 C3.97248797 2.38349278 5.65216226 4.58889469 7 9 C4 9 4 9 1.5625 7.9375 C-0.85864733 6.87121234 -0.85864733 6.87121234 -3 7.0625 C-6.95943912 8.91848709 -9.49814007 12.35053421 -12.125 15.75 C-14 18 -14 18 -17 19 C-18.20882096 21.00016466 -18.20882096 21.00016466 -19 23 C-19.15463313 13.87664508 -14.5351598 7.82500438 -9 1 C-5.89951072 -0.55024464 -3.42105782 -0.28992015 0 0 Z " fill="#A9A9A9" transform="translate(100,7)"/>
<path d="M0 0 C1.68996094 0.04060547 1.68996094 0.04060547 3.4140625 0.08203125 C6.19464237 0.15272396 8.97135359 0.2513496 11.75 0.375 C15.13840767 5.79824508 15.2056552 10.37445419 15.125 16.5625 C15.13660156 17.46419922 15.14820312 18.36589844 15.16015625 19.29492188 C15.15628906 20.16052734 15.15242188 21.02613281 15.1484375 21.91796875 C15.14336182 23.0939563 15.14336182 23.0939563 15.13818359 24.29370117 C14.63796664 26.97568203 13.99355715 27.82974057 11.75 29.375 C7.80161415 30.01823049 3.80735662 29.83821294 -0.1875 29.8125 C-1.83395508 29.8424707 -1.83395508 29.8424707 -3.51367188 29.87304688 C-4.57005859 29.87240234 -5.62644531 29.87175781 -6.71484375 29.87109375 C-8.16298462 29.87387329 -8.16298462 29.87387329 -9.64038086 29.87670898 C-13.02212871 29.22655538 -14.19573176 28.10223356 -16.25 25.375 C-16.76757812 23.27197266 -16.76757812 23.27197266 -16.78125 21.0390625 C-16.78640625 20.22179687 -16.7915625 19.40453125 -16.796875 18.5625 C-16.78140625 17.716875 -16.7659375 16.87125 -16.75 16 C-16.76546875 15.16210938 -16.7809375 14.32421875 -16.796875 13.4609375 C-16.7721071 9.52284205 -16.30655421 6.53488782 -14.984375 2.796875 C-10.52793805 -1.15025487 -5.72221359 -0.25889365 0 0 Z M-11.25 1.375 C-11.91 2.695 -12.57 4.015 -13.25 5.375 C-12.92 5.705 -12.59 6.035 -12.25 6.375 C-11.97929101 10.01453196 -11.80354483 13.64743524 -11.64453125 17.29296875 C-11.82300905 21.14973093 -11.82300905 21.14973093 -10.25 24.375 C-8.84651265 24.47360131 -7.43819523 24.50578937 -6.03125 24.5078125 C-5.18175781 24.50910156 -4.33226563 24.51039062 -3.45703125 24.51171875 C-2.56371094 24.50785156 -1.67039062 24.50398438 -0.75 24.5 C0.58998047 24.50580078 0.58998047 24.50580078 1.95703125 24.51171875 C3.23126953 24.50978516 3.23126953 24.50978516 4.53125 24.5078125 C5.31564453 24.50668457 6.10003906 24.50555664 6.90820312 24.50439453 C8.76752988 24.57607442 8.76752988 24.57607442 9.75 23.375 C9.82325168 20.51232433 9.84238205 17.674281 9.8125 14.8125 C9.80798828 14.00619141 9.80347656 13.19988281 9.79882812 12.36914062 C9.78700518 10.37106244 9.76906914 8.37302217 9.75 6.375 C10.41 6.375 11.07 6.375 11.75 6.375 C11.42 4.725 11.09 3.075 10.75 1.375 C3.49 1.375 -3.77 1.375 -11.25 1.375 Z M-15.25 7.375 C-15.35812003 10.12605422 -15.43734945 12.87285087 -15.5 15.625 C-15.53351562 16.40230469 -15.56703125 17.17960937 -15.6015625 17.98046875 C-15.66114357 21.46596155 -15.56515128 23.77537588 -13.92578125 26.89453125 C-9.53934559 29.32147886 -5.10838001 28.91060114 -0.1875 28.8125 C1.32166992 28.82313477 1.32166992 28.82313477 2.86132812 28.83398438 C7.9874671 29.02407915 7.9874671 29.02407915 12.54199219 27.11230469 C14.04529462 24.95032002 14.09862792 23.76051209 14.04296875 21.14453125 C14.03330078 20.34208984 14.02363281 19.53964844 14.01367188 18.71289062 C13.98853516 17.87951172 13.96339844 17.04613281 13.9375 16.1875 C13.92396484 15.34251953 13.91042969 14.49753906 13.89648438 13.62695312 C13.86115799 11.54269616 13.80735139 9.45876723 13.75 7.375 C12.76 7.375 11.77 7.375 10.75 7.375 C10.42 12.985 10.09 18.595 9.75 24.375 C2.82 24.375 -4.11 24.375 -11.25 24.375 C-11.58 18.765 -11.91 13.155 -12.25 7.375 C-13.24 7.375 -14.23 7.375 -15.25 7.375 Z " fill="#3B3B3B" transform="translate(71.25,96.625)"/>
<path d="M0 0 C0 0.66 0 1.32 0 2 C-5.28 3.98 -10.56 5.96 -16 8 C-14.77830046 15.12658063 -12.9011452 21.38088231 -10 28 C-6.46906515 27.57628782 -3.24898096 27.08465353 0.125 25.9375 C2.95102756 25.01596927 5.05471874 24.82674816 8 25 C8 25.66 8 26.32 8 27 C5.60872043 27.86928276 3.21338274 28.72051601 0.8125 29.5625 C0.13896484 29.80935547 -0.53457031 30.05621094 -1.22851562 30.31054688 C-8.12622161 32.69950846 -8.12622161 32.69950846 -12 31 C-14.89455282 27.30599926 -16.27395322 22.91067233 -17.75 18.5 C-17.98332031 17.84902344 -18.21664063 17.19804688 -18.45703125 16.52734375 C-19.7580642 12.67098859 -20.39458117 9.88490469 -19 6 C-14.07054048 1.99481414 -6.3577229 -0.61526351 0 0 Z " fill="#F2F2F2" transform="translate(29,63)"/>
<path d="M0 0 C2.76597914 4.14896871 1.93193549 7.33371309 1 12 C-0.14227551 16.39950656 -1.33143393 20.76876831 -3 25 C-3.66 25.33 -4.32 25.66 -5 26 C-4.05615968 21.30300639 -2.97991197 16.8099231 -1.3125 12.3125 C0.41788182 7.14013324 0.41788182 7.14013324 -1 2 C-4.1815905 0.17073639 -7.50043585 -0.92954508 -11 -2 C-11.7321875 -2.226875 -12.464375 -2.45375 -13.21875 -2.6875 C-14.80388709 -3.15524537 -16.40081073 -3.58282019 -18 -4 C-17.12533388 -1.66936581 -17.12533388 -1.66936581 -14.12890625 -1 C-12.36353516 -0.505 -12.36353516 -0.505 -10.5625 0 C-4.21679389 1.78320611 -4.21679389 1.78320611 -2 4 C-2.28417997 10.53613929 -4.49042158 16.99595201 -7 23 C-7.66 23.33 -8.32 23.66 -9 24 C-8.80664062 23.29875 -8.61328125 22.5975 -8.4140625 21.875 C-6.874383 16.26507866 -5.38582343 10.64989553 -4 5 C-4.97582031 4.67386719 -5.95164062 4.34773438 -6.95703125 4.01171875 C-8.24234511 3.57077166 -9.52749278 3.12933992 -10.8125 2.6875 C-11.45509766 2.47416016 -12.09769531 2.26082031 -12.75976562 2.04101562 C-16.15621242 0.86193824 -18.73919265 -0.13406949 -21 -3 C-24.08759559 -2.35932024 -24.08759559 -2.35932024 -24.94921875 -0.15234375 C-25.19285156 0.57855469 -25.43648438 1.30945313 -25.6875 2.0625 C-25.93886719 2.79597656 -26.19023438 3.52945313 -26.44921875 4.28515625 C-26.63097656 4.85105469 -26.81273438 5.41695312 -27 6 C-27.95301425 2.94241261 -28.02643571 2.0826116 -27 -1.125 C-24.95739463 -4.06124522 -23.67611565 -5.20739075 -20.15625 -5.953125 C-13.33118504 -6.10149598 -6.00848486 -3.06816248 0 0 Z " fill="#5A5A5A" transform="translate(131,67)"/>
<path d="M0 0 C6.05013016 0.52609828 11.61270055 2.1438449 17 5 C19 8 19 8 18.75 11.375 C18.09860898 14.52338995 17.50126307 17.16428088 16 20 C15.01 20.33 14.02 20.66 13 21 C13.15597656 20.40832031 13.31195313 19.81664063 13.47265625 19.20703125 C13.66730469 18.41683594 13.86195312 17.62664062 14.0625 16.8125 C14.25972656 16.03519531 14.45695312 15.25789063 14.66015625 14.45703125 C15.03916297 11.71685622 14.67704634 9.66557405 14 7 C13.07316406 6.74605469 12.14632812 6.49210937 11.19140625 6.23046875 C9.99386719 5.88628906 8.79632813 5.54210937 7.5625 5.1875 C5.77005859 4.68283203 5.77005859 4.68283203 3.94140625 4.16796875 C2.97074219 3.78253906 2.00007813 3.39710937 1 3 C0.67 2.01 0.34 1.02 0 0 Z " fill="#F3F3F3" transform="translate(113,63)"/>
<path d="M0 0 C0.33 0.99 0.66 1.98 1 3 C0.04422943 4.36538653 -0.96352976 5.69481525 -2 7 C-2.33 7.825 -2.66 8.65 -3 9.5 C-4.35543825 12.88859563 -5.81484133 15.20989422 -8.875 17.25 C-11.35859259 18.12656209 -13.38484932 18.14528615 -16 18 C-15.38125 17.79375 -14.7625 17.5875 -14.125 17.375 C-11.74621764 16.14966652 -11.74621764 16.14966652 -11.125 13.375 C-9.45625309 8.36875927 -6.50609579 3.40912148 -1.8046875 0.765625 C-1.20914063 0.51296875 -0.61359375 0.2603125 0 0 Z " fill="#909090" transform="translate(114,25)"/>
<path d="M0 0 C2.875 0.3125 2.875 0.3125 6 1 C6.66 1.99 7.32 2.98 8 4 C7.113125 3.731875 6.22625 3.46375 5.3125 3.1875 C1.88340658 2.62230174 1.88340658 2.62230174 -0.5625 5.0625 C-1.82205691 6.58042756 -3.08020002 8.09971457 -4.31640625 9.63671875 C-7.80212942 13.93404314 -7.80212942 13.93404314 -11 15 C-12.20882096 17.00016466 -12.20882096 17.00016466 -13 19 C-12.91253716 17.56138706 -12.80434652 16.12402492 -12.6875 14.6875 C-12.62949219 13.88699219 -12.57148437 13.08648437 -12.51171875 12.26171875 C-11.90144248 9.5643908 -11.24964988 8.59071353 -9 7 C-7.68 7 -6.36 7 -5 7 C-3.4363243 5.48765634 -3.4363243 5.48765634 -2.25 3.5 C-1.82203125 2.8503125 -1.3940625 2.200625 -0.953125 1.53125 C-0.63859375 1.0259375 -0.3240625 0.520625 0 0 Z " fill="#8F8F8F" transform="translate(94,11)"/>
<path d="M0 0 C0.99 0 1.98 0 3 0 C3.08086376 2.93804996 3.1404283 5.87388075 3.1875 8.8125 C3.21263672 9.64587891 3.23777344 10.47925781 3.26367188 11.33789062 C3.27333984 12.14033203 3.28300781 12.94277344 3.29296875 13.76953125 C3.3086792 14.50792236 3.32438965 15.24631348 3.34057617 16.00708008 C2.9047656 18.55727485 2.02623737 19.44175849 0 21 C-0.66 21 -1.32 21 -2 21 C-1.84152588 20.42475586 -1.68305176 19.84951172 -1.51977539 19.25683594 C-1.02086674 17.09060223 -0.80111676 15.10677317 -0.68359375 12.890625 C-0.62075195 11.75947266 -0.62075195 11.75947266 -0.55664062 10.60546875 C-0.51732422 9.82816406 -0.47800781 9.05085938 -0.4375 8.25 C-0.39431641 7.45722656 -0.35113281 6.66445312 -0.30664062 5.84765625 C-0.20097009 3.89862185 -0.10002034 1.94933252 0 0 Z " fill="#EFEFEF" transform="translate(82,104)"/>
<path d="M0 0 C6.04801071 0.54981916 11.30601106 1.90429574 17 4 C17 4.99 17 5.98 17 7 C11.07136283 5.83348574 5.61201606 4.24480642 0 2 C0 1.34 0 0.68 0 0 Z " fill="#EEEEEE" transform="translate(104,88)"/>
<path d="M0 0 C3.15330554 0.60694155 5.18888867 1.6416665 7.75 3.5625 C8.67039062 4.24505859 8.67039062 4.24505859 9.609375 4.94140625 C10.29773438 5.46541016 10.29773438 5.46541016 11 6 C10.67 6.99 10.34 7.98 10 9 C6.37 6.69 2.74 4.38 -1 2 C-0.67 1.34 -0.34 0.68 0 0 Z " fill="#F0F0F0" transform="translate(96,8)"/>
<path d="M0 0 C2.875 0.3125 2.875 0.3125 6 1 C6.66 1.99 7.32 2.98 8 4 C7.113125 3.731875 6.22625 3.46375 5.3125 3.1875 C1.8291888 2.60593739 1.8291888 2.60593739 -0.6875 5.3125 C-1.8321875 6.6428125 -1.8321875 6.6428125 -3 8 C-3.99 8.66 -4.98 9.32 -6 10 C-4.6302836 6.00499382 -2.74277578 3.19990508 0 0 Z " fill="#7E7E7E" transform="translate(94,11)"/>
<path d="M0 0 C2.64752004 2.57784846 4.94432065 4.91648098 7 8 C7 8.99 7 9.98 7 11 C2.79609368 9.49860488 1.10889262 6.82724957 -1 3 C-0.67 2.01 -0.34 1.02 0 0 Z " fill="#F4F4F3" transform="translate(51,13)"/>
<path d="M0 0 C0.66 0.33 1.32 0.66 2 1 C1.34 2.32 0.68 3.64 0 5 C0.66 5.33 1.32 5.66 2 6 C0.35 7.32 -1.3 8.64 -3 10 C-3.66 9.67 -4.32 9.34 -5 9 C-4.34 7.68 -3.68 6.36 -3 5 C-3.66 4.67 -4.32 4.34 -5 4 C-3.35 2.68 -1.7 1.36 0 0 Z " fill="#818181" transform="translate(40,8)"/>
<path d="M0 0 C0.66 0.33 1.32 0.66 2 1 C1.0409375 2.11375 1.0409375 2.11375 0.0625 3.25 C-1.78333407 5.7111121 -2.56069174 7.03466926 -3 10 C-3.66 9.34 -4.32 8.68 -5 8 C-4.875 5.5625 -4.875 5.5625 -4 3 C-1.9375 1.1875 -1.9375 1.1875 0 0 Z " fill="#7D7D7D" transform="translate(33,18)"/>
<path d="M0 0 C2.99324263 1.0975223 3.84610901 1.67682892 5.25 4.625 C5.4975 5.40875 5.745 6.1925 6 7 C5.01 6.67 4.02 6.34 3 6 C2.01 6.495 2.01 6.495 1 7 C0.67 4.69 0.34 2.38 0 0 Z " fill="#A4A4A4" transform="translate(48,8)"/>
<path d="M0 0 C0.33 0.99 0.66 1.98 1 3 C-0.3125 5.1875 -0.3125 5.1875 -2 7 C-2.66 7 -3.32 7 -4 7 C-3.6875 4.625 -3.6875 4.625 -3 2 C-2.01 1.34 -1.02 0.68 0 0 Z " fill="#F5F5F5" transform="translate(114,25)"/>
<path d="M0 0 C0.66 0 1.32 0 2 0 C1.8125 1.8125 1.8125 1.8125 1 4 C-1.5625 5.75 -1.5625 5.75 -4 7 C-2.79618552 4.50638429 -1.54571278 2.31856917 0 0 Z " fill="#F2F2F2" transform="translate(35,13)"/>
</svg>
