<?xml version="1.0" encoding="UTF-8"?>
<svg version="1.1" xmlns="http://www.w3.org/2000/svg" width="142" height="127">
<path d="M0 0 C46.86 0 93.72 0 142 0 C142 41.91 142 83.82 142 127 C95.14 127 48.28 127 0 127 C0 85.09 0 43.18 0 0 Z " fill="#FEFEFE" transform="translate(0,0)"/>
<path d="M0 0 C7.90451906 4.50483909 12.86580096 10.27022219 15.90234375 18.8671875 C18.07622323 27.53697903 16.68200454 35.63337551 12.5625 43.5 C8.05343188 50.19087528 2.45938856 55.3758691 -5.4375 57.5 C-15.10559678 58.88046351 -24.37581622 58.50080221 -32.4375 52.5 C-38.65430043 47.53619811 -42.87493621 41.37178361 -44.4375 33.5 C-45.25948859 23.46225476 -43.61228812 15.29432549 -37.2421875 7.35546875 C-27.36310419 -2.80159742 -13.01964439 -6.02670332 0 0 Z " fill="#EFEFEF" transform="translate(85.4375,26.5)"/>
<path d="M0 0 C7.06693757 0.1930046 14.70660856 5.62907262 19.4375 10.625 C21.58487223 14.36301833 21.20285654 15.43474445 20.125 19.5625 C18.88014398 22.43625958 17.40916028 25.14677646 15.875 27.875 C15.30072266 28.96651367 15.30072266 28.96651367 14.71484375 30.08007812 C11.81061613 35.2911755 11.81061613 35.2911755 8.55859375 36.578125 C-0.0984163 36.52254227 -6.87934963 32.23033045 -13.66796875 27.24609375 C-15.62371331 24.5181782 -15.35909016 22.86660746 -14.875 19.5625 C-13.49642457 16.48823274 -11.77892759 13.66956553 -10 10.8125 C-9.53980469 10.04550781 -9.07960938 9.27851563 -8.60546875 8.48828125 C-3.92433637 0.76780494 -3.92433637 0.76780494 0 0 Z " fill="#F8F8F8" transform="translate(26.875,11.4375)"/>
<path d="M0 0 C1.61358398 -0.01836914 1.61358398 -0.01836914 3.25976562 -0.03710938 C4.28650391 -0.03904297 5.31324219 -0.04097656 6.37109375 -0.04296875 C7.79119751 -0.04913208 7.79119751 -0.04913208 9.23999023 -0.05541992 C11.5625 0.1875 11.5625 0.1875 13.5625 2.1875 C13.5625 3.5075 13.5625 4.8275 13.5625 6.1875 C14.2225 6.1875 14.8825 6.1875 15.5625 6.1875 C15.70796783 9.43702748 15.7966168 12.68571713 15.875 15.9375 C15.91689453 16.85789062 15.95878906 17.77828125 16.00195312 18.7265625 C16.12289779 25.40270812 16.12289779 25.40270812 13.69921875 28.796875 C9.12880791 30.82310944 5.00806891 30.7691325 0.0625 30.6875 C-0.87464844 30.70296875 -1.81179687 30.7184375 -2.77734375 30.734375 C-6.85030942 30.71126597 -9.8246579 30.45919588 -13.57421875 28.796875 C-16.48937077 24.71443988 -15.97197231 20.8140609 -15.75 15.9375 C-15.72744141 15.00164062 -15.70488281 14.06578125 -15.68164062 13.1015625 C-15.62280595 10.79524326 -15.54067146 8.49219162 -15.4375 6.1875 C-14.7775 6.1875 -14.1175 6.1875 -13.4375 6.1875 C-13.293125 5.383125 -13.14875 4.57875 -13 3.75 C-11.71655159 -2.09682054 -4.98707557 0.00297736 0 0 Z " fill="#FAFAFA" transform="translate(71.4375,86.8125)"/>
<path d="M0 0 C4.13579635 3.29124935 6.75975672 7.3595425 9.375 11.875 C9.74238281 12.46152344 10.10976562 13.04804688 10.48828125 13.65234375 C12.41851939 16.96652622 13.0019414 18.95013673 12.8515625 22.8125 C11.75309145 26.92420814 10.59002979 27.75623138 7 30 C6.33484375 30.43441406 5.6696875 30.86882813 4.984375 31.31640625 C0.15222282 34.28159054 -5.18202962 36.99005614 -11 36 C-14.72924401 33.06623074 -16.93434021 29.13205766 -19.25 25.0625 C-19.61351563 24.45470703 -19.97703125 23.84691406 -20.3515625 23.22070312 C-22.37733268 19.69083667 -23.72479869 17.07363707 -23 13 C-20.97480742 8.20581684 -17.59026492 6.1170886 -13.1875 3.6875 C-12.58357422 3.32849609 -11.97964844 2.96949219 -11.35742188 2.59960938 C-7.43838545 0.38486866 -4.4757184 -0.84873787 0 0 Z " fill="#FAFAF9" transform="translate(118,12)"/>
<path d="M0 0 C4.13579635 3.29124935 6.75975672 7.3595425 9.375 11.875 C9.74238281 12.46152344 10.10976562 13.04804688 10.48828125 13.65234375 C12.41851939 16.96652622 13.0019414 18.95013673 12.8515625 22.8125 C11.75309145 26.92420814 10.59002979 27.75623138 7 30 C6.30003906 30.44601563 5.60007812 30.89203125 4.87890625 31.3515625 C0.47109073 34.01260458 -2.69520853 35.68010147 -8 35 C-7.03006181 31.44560626 -6.22552028 30.16148752 -3.1796875 27.98046875 C-2.08914062 27.38878906 -0.99859375 26.79710938 0.125 26.1875 C1.22070312 25.58292969 2.31640625 24.97835937 3.4453125 24.35546875 C4.28835937 23.90816406 5.13140625 23.46085937 6 23 C5.41734728 18.57676318 3.73233789 15.4844136 1.4375 11.6875 C0.47650391 10.08455078 0.47650391 10.08455078 -0.50390625 8.44921875 C-0.99761719 7.64097656 -1.49132812 6.83273438 -2 6 C-6.18516876 7.58417479 -9.8799139 9.60128694 -13.71875 11.87890625 C-16.14920068 13.07332294 -18.3343292 13.58231567 -21 14 C-20.37666027 16.95296424 -19.43098208 19.27546792 -17.93359375 21.890625 C-17.53076172 22.59960938 -17.12792969 23.30859375 -16.71289062 24.0390625 C-16.29201172 24.76867187 -15.87113281 25.49828125 -15.4375 26.25 C-15.01275391 26.99507812 -14.58800781 27.74015625 -14.15039062 28.5078125 C-13.10453958 30.34098961 -12.05283808 32.17082677 -11 34 C-11.99 34.495 -11.99 34.495 -13 35 C-14.68472012 32.28159655 -16.3443979 29.54871807 -18 26.8125 C-18.47695312 26.04357422 -18.95390625 25.27464844 -19.4453125 24.48242188 C-20.12207031 23.35610352 -20.12207031 23.35610352 -20.8125 22.20703125 C-21.23144531 21.5210083 -21.65039062 20.83498535 -22.08203125 20.12817383 C-23.18403661 17.57333852 -23.23466906 15.75813434 -23 13 C-20.97480742 8.20581684 -17.59026492 6.1170886 -13.1875 3.6875 C-12.58357422 3.32849609 -11.97964844 2.96949219 -11.35742188 2.59960938 C-7.43838545 0.38486866 -4.4757184 -0.84873787 0 0 Z " fill="#8F8F8F" transform="translate(118,12)"/>
<path d="M0 0 C6.67323527 0.18225222 13.16320678 4.99882969 18.04296875 9.22265625 C19.4375 10.75 19.4375 10.75 21.125 13.5625 C20.9375 15.9375 20.9375 15.9375 20.125 17.5625 C19.91875 16.923125 19.7125 16.28375 19.5 15.625 C19.04625 14.944375 18.5925 14.26375 18.125 13.5625 C17.3 13.43875 16.475 13.315 15.625 13.1875 C11.11906505 12.38286876 8.16669365 10.25696243 4.39453125 7.7421875 C3.64558594 7.35289063 2.89664062 6.96359375 2.125 6.5625 C-1.88869969 7.9003999 -2.49915565 9.71086288 -4.625 13.3125 C-5.57632812 14.88257813 -5.57632812 14.88257813 -6.546875 16.484375 C-8.03378977 19.4119006 -8.03378977 19.4119006 -7.95703125 22.2265625 C-6.37187974 25.64865854 -4.1241912 26.49098451 -0.8125 28.1875 C2.53515625 29.9140625 2.53515625 29.9140625 5.125 31.5625 C5.125 32.5525 5.125 33.5425 5.125 34.5625 C6.775 34.5625 8.425 34.5625 10.125 34.5625 C10.393125 33.840625 10.66125 33.11875 10.9375 32.375 C12.11482498 29.58659874 13.51645884 27.12154276 15.125 24.5625 C15.455 25.2225 15.785 25.8825 16.125 26.5625 C15.3046875 28.69140625 15.3046875 28.69140625 14 31.125 C13.37738281 32.33349609 13.37738281 32.33349609 12.7421875 33.56640625 C11.125 35.5625 11.125 35.5625 8.67578125 36.375 C0.10848556 37.00475527 -7.03728063 32.11437675 -13.66796875 27.24609375 C-15.62371331 24.5181782 -15.35909016 22.86660746 -14.875 19.5625 C-13.49642457 16.48823274 -11.77892759 13.66956553 -10 10.8125 C-9.53980469 10.04550781 -9.07960938 9.27851563 -8.60546875 8.48828125 C-3.92433637 0.76780494 -3.92433637 0.76780494 0 0 Z " fill="#9F9F9F" transform="translate(26.875,11.4375)"/>
<path d="M0 0 C1.61358398 -0.01836914 1.61358398 -0.01836914 3.25976562 -0.03710938 C4.28650391 -0.03904297 5.31324219 -0.04097656 6.37109375 -0.04296875 C7.79119751 -0.04913208 7.79119751 -0.04913208 9.23999023 -0.05541992 C11.5625 0.1875 11.5625 0.1875 13.5625 2.1875 C13.5625 3.5075 13.5625 4.8275 13.5625 6.1875 C14.2225 6.1875 14.8825 6.1875 15.5625 6.1875 C15.70796783 9.43702748 15.7966168 12.68571713 15.875 15.9375 C15.91689453 16.85789062 15.95878906 17.77828125 16.00195312 18.7265625 C16.12289779 25.40270812 16.12289779 25.40270812 13.69921875 28.796875 C9.12880791 30.82310944 5.00806891 30.7691325 0.0625 30.6875 C-0.87464844 30.70296875 -1.81179687 30.7184375 -2.77734375 30.734375 C-6.85030942 30.71126597 -9.8246579 30.45919588 -13.57421875 28.796875 C-16.48937077 24.71443988 -15.97197231 20.8140609 -15.75 15.9375 C-15.72744141 15.00164062 -15.70488281 14.06578125 -15.68164062 13.1015625 C-15.62280595 10.79524326 -15.54067146 8.49219162 -15.4375 6.1875 C-14.7775 6.1875 -14.1175 6.1875 -13.4375 6.1875 C-13.293125 5.383125 -13.14875 4.57875 -13 3.75 C-11.71655159 -2.09682054 -4.98707557 0.00297736 0 0 Z M-12.4375 3.1875 C-12.1046889 5.11696418 -12.1046889 5.11696418 -11.4375 7.1875 C-11.29820644 8.55426632 -11.19384699 9.9249567 -11.12109375 11.296875 C-11.08298584 11.97717773 -11.04487793 12.65748047 -11.00561523 13.35839844 C-10.96251221 14.20950195 -10.91940918 15.06060547 -10.875 15.9375 C-10.730625 18.66 -10.58625 21.3825 -10.4375 24.1875 C-3.5075 24.1875 3.4225 24.1875 10.5625 24.1875 C10.85085368 18.77317191 10.85085368 18.77317191 11.13061523 13.35839844 C11.1877771 12.33794434 11.1877771 12.33794434 11.24609375 11.296875 C11.28275146 10.60561523 11.31940918 9.91435547 11.35717773 9.20214844 C11.5625 7.1875 11.5625 7.1875 12.20727539 5.05566406 C12.32449951 4.43916992 12.44172363 3.82267578 12.5625 3.1875 C10.07192749 0.69692749 9.27777341 0.9309187 5.84375 0.921875 C4.91175781 0.91929688 3.97976562 0.91671875 3.01953125 0.9140625 C2.04371094 0.92179687 1.06789063 0.92953125 0.0625 0.9375 C-0.91332031 0.92976563 -1.88914062 0.92203125 -2.89453125 0.9140625 C-3.82652344 0.91664062 -4.75851563 0.91921875 -5.71875 0.921875 C-7.00362305 0.92525879 -7.00362305 0.92525879 -8.31445312 0.92871094 C-10.65338547 0.99248428 -10.65338547 0.99248428 -12.4375 3.1875 Z " fill="#8F8F8E" transform="translate(71.4375,86.8125)"/>
<path d="M0 0 C2.64764046 2.39548423 4.51720436 4.73784959 6 8 C6 12.04231702 5.803814 14.14594763 3 17.125 C2.01 17.74375 1.02 18.3625 0 19 C-0.69996094 19.44601563 -1.39992188 19.89203125 -2.12109375 20.3515625 C-6.52890927 23.01260458 -9.69520853 24.68010147 -15 24 C-14.03006181 20.44560626 -13.22552028 19.16148752 -10.1796875 16.98046875 C-9.08914062 16.38878906 -7.99859375 15.79710937 -6.875 15.1875 C-5.77929688 14.58292969 -4.68359375 13.97835937 -3.5546875 13.35546875 C-2.71164063 12.90816406 -1.86859375 12.46085937 -1 12 C-1.59651306 8.97733297 -2.22669667 5.98274142 -3 3 C-0.9754262 4.93254772 0.42105792 6.63158688 2 9 C2 9.99 2 10.98 2 12 C2.66 12 3.32 12 4 12 C3.566875 10.700625 3.566875 10.700625 3.125 9.375 C1.5625 4.6875 1.5625 4.6875 0 0 Z " fill="#828282" transform="translate(125,23)"/>
<path d="M0 0 C6.71477622 0.08341337 13.20283078 4.91652868 18.10546875 9.16015625 C19.5 10.6875 19.5 10.6875 21.1875 13.5 C21 15.875 21 15.875 20.1875 17.5 C19.98125 16.860625 19.775 16.22125 19.5625 15.5625 C19.10875 14.881875 18.655 14.20125 18.1875 13.5 C17.3625 13.37625 16.5375 13.2525 15.6875 13.125 C11.18156505 12.32036876 8.22919365 10.19446243 4.45703125 7.6796875 C3.70808594 7.29039063 2.95914062 6.90109375 2.1875 6.5 C-1.54889216 7.74546405 -2.00006513 9.13404953 -3.8125 12.5 C-4.1425 11.84 -4.4725 11.18 -4.8125 10.5 C-3.4925 8.52 -2.1725 6.54 -0.8125 4.5 C2.92237777 4.9979837 4.99987635 5.37491756 8.1875 7.5 C7.50033015 4.48166743 7.50033015 4.48166743 5.5 3.25 C2.24837896 2.1954202 0.43091418 2.41886194 -2.8125 3.5 C-5.21771237 6.43942994 -5.21771237 6.43942994 -6.8125 9.5 C-7.1425 8.84 -7.4725 8.18 -7.8125 7.5 C-3.2463511 0.57712908 -3.2463511 0.57712908 0 0 Z " fill="#797979" transform="translate(26.8125,11.5)"/>
<path d="M0 0 C0.33 0.99 0.66 1.98 1 3 C-4.82322176 8.97646444 -4.82322176 8.97646444 -9.125 9.0625 C-10.548125 9.0315625 -10.548125 9.0315625 -12 9 C-11.06955722 5.77553449 -10.58896973 4.33696793 -7.6171875 2.63671875 C-6.71226563 2.32347656 -5.80734375 2.01023438 -4.875 1.6875 C-3.50988281 1.19830078 -3.50988281 1.19830078 -2.1171875 0.69921875 C-1.41851562 0.46847656 -0.71984375 0.23773438 0 0 Z " fill="#ABABAB" transform="translate(122,38)"/>
<path d="M0 0 C0.99 0 1.98 0 3 0 C3 5.61 3 11.22 3 17 C2.01 17 1.02 17 0 17 C0 11.39 0 5.78 0 0 Z " fill="#F9F9F9" transform="translate(83,94)"/>
<path d="M0 0 C2 1 2 1 3 3 C-2.33333333 5.66666667 -7.66666667 8.33333333 -13 11 C-13.33 10.01 -13.66 9.02 -14 8 C-11.7136988 6.63597957 -9.42178251 5.28365726 -7.125 3.9375 C-6.47402344 3.54755859 -5.82304688 3.15761719 -5.15234375 2.75585938 C-3.46934275 1.77555467 -1.73703801 0.88101568 0 0 Z " fill="#F5F5F5" transform="translate(113,13)"/>
<path d="M0 0 C3 0.75 3 0.75 6 2.75 C6 3.74 6 4.73 6 5.75 C5.278125 5.399375 4.55625 5.04875 3.8125 4.6875 C0.64633734 3.63211245 -0.85917285 3.73135336 -4 4.75 C-4.66 5.41 -5.32 6.07 -6 6.75 C-6.66 6.75 -7.32 6.75 -8 6.75 C-6.4490215 2.21637055 -5.31403019 -0.44283585 0 0 Z " fill="#F5F5F5" transform="translate(29,13.25)"/>
<path d="M0 0 C1.11841676 3.35525029 0.91538821 3.97089854 -0.3125 7.125 C-0.57675781 7.82882813 -0.84101563 8.53265625 -1.11328125 9.2578125 C-2 11 -2 11 -4 12 C-3.34 9.69 -2.68 7.38 -2 5 C-2.99 5.495 -2.99 5.495 -4 6 C-3.6875 4.125 -3.6875 4.125 -3 2 C-2.01 1.34 -1.02 0.68 0 0 Z " fill="#ADADAD" transform="translate(22,19)"/>
<path d="M0 0 C0.66 0.33 1.32 0.66 2 1 C1.67 1.99 1.34 2.98 1 4 C-1.5625 5.1875 -1.5625 5.1875 -4 6 C-4.33 5.01 -4.66 4.02 -5 3 C-2.625 1.4375 -2.625 1.4375 0 0 Z " fill="#E9E9E9" transform="translate(104,18)"/>
</svg>
